<?xml version="1.0" encoding="UTF-8"?>
<!DOCTYPE svg PUBLIC "-//W3C//DTD SVG 1.1//EN" "http://www.w3.org/Graphics/SVG/1.1/DTD/svg11.dtd">
<svg xmlns="http://www.w3.org/2000/svg" version="1.1" width="150px" height="45px" style="shape-rendering:geometricPrecision; text-rendering:geometricPrecision; image-rendering:optimizeQuality; fill-rule:evenodd; clip-rule:evenodd" xmlns:xlink="http://www.w3.org/1999/xlink">
<g><path style="opacity:1" fill="#b9eded" d="M -0.5,0.5 C -0.5,0.166667 -0.5,-0.166667 -0.5,-0.5C 49.1667,-0.5 98.8333,-0.5 148.5,-0.5C 145.167,0.166667 141.833,0.833333 138.5,1.5C 112.833,1.5 87.1667,1.5 61.5,1.5C 46.0089,0.503718 30.3422,0.170384 14.5,0.5C 11.5,0.5 8.5,0.5 5.5,0.5C 3.5,0.5 1.5,0.5 -0.5,0.5 Z"/></g>
<g><path style="opacity:0.928" fill="#79b9e3" d="M 14.5,1.5 C 14.5,1.16667 14.5,0.833333 14.5,0.5C 30.3422,0.170384 46.0089,0.503718 61.5,1.5C 61.8417,2.33825 62.5084,2.67158 63.5,2.5C 63.5,3.5 63.5,4.5 63.5,5.5C 62.8333,5.5 62.1667,5.5 61.5,5.5C 61.1667,5.5 60.8333,5.5 60.5,5.5C 59.0101,3.72017 57.0101,3.05351 54.5,3.5C 51.0977,3.65757 47.7644,3.32423 44.5,2.5C 34.6806,1.50598 24.6806,1.17265 14.5,1.5 Z"/></g>
<g><path style="opacity:0.519" fill="#9580e1" d="M 44.5,2.5 C 47.7644,3.32423 51.0977,3.65757 54.5,3.5C 54.5,3.83333 54.5,4.16667 54.5,4.5C 40.2606,4.65775 25.9273,4.65775 11.5,4.5C 13.631,3.68618 15.9644,3.18618 18.5,3C 27.1603,2.50025 35.8269,2.33358 44.5,2.5 Z"/></g>
<g><path style="opacity:0.424" fill="#50dbd7" d="M 61.5,1.5 C 87.1667,1.5 112.833,1.5 138.5,1.5C 141.85,1.33499 145.183,1.50166 148.5,2C 144.167,2.33333 139.833,2.66667 135.5,3C 137.066,3.6082 138.4,4.44153 139.5,5.5C 138.167,5.5 136.833,5.5 135.5,5.5C 129.833,5.5 124.167,5.5 118.5,5.5C 118.179,3.95186 117.179,3.28519 115.5,3.5C 109.486,5.04161 103.319,5.70827 97,5.5C 85.844,4.39269 74.6773,3.39269 63.5,2.5C 62.5084,2.67158 61.8417,2.33825 61.5,1.5 Z"/></g>
<g><path style="opacity:0.702" fill="#d449d6" d="M 10.5,5.5 C 10.5,4.83333 10.8333,4.5 11.5,4.5C 25.9273,4.65775 40.2606,4.65775 54.5,4.5C 54.6716,5.49162 54.3382,6.15829 53.5,6.5C 50.9407,6.19845 48.6074,6.53178 46.5,7.5C 44.5441,5.85159 42.2108,5.18493 39.5,5.5C 38.1667,5.5 36.8333,5.5 35.5,5.5C 31.713,4.81442 28.5463,5.81442 26,8.5C 25.6174,7.94404 25.1174,7.61071 24.5,7.5C 21.8577,4.96639 19.0243,4.96639 16,7.5C 15.6174,6.94404 15.1174,6.61071 14.5,6.5C 13.4324,5.56552 12.099,5.23219 10.5,5.5 Z"/></g>
<g><path style="opacity:0.639" fill="#d8b66f" d="M 75.5,5.5 C 69.7865,4.45059 65.1198,6.11726 61.5,10.5C 62.1667,8.83333 62.8333,7.16667 63.5,5.5C 67.6478,4.35633 71.6478,4.35633 75.5,5.5 Z"/></g>
<g><path style="opacity:0.998" fill="#feabe9" d="M 39.5,5.5 C 42.2108,5.18493 44.5441,5.85159 46.5,7.5C 47.3024,10.5738 48.3024,13.5738 49.5,16.5C 48.4625,17.9303 47.7959,19.597 47.5,21.5C 46.8333,20.8333 46.1667,20.1667 45.5,19.5C 44.0483,14.5968 42.0483,9.93011 39.5,5.5 Z"/></g>
<g><path style="opacity:0.251" fill="#85d0ad" d="M 63.5,2.5 C 74.6773,3.39269 85.844,4.39269 97,5.5C 103.319,5.70827 109.486,5.04161 115.5,3.5C 115.5,3.83333 115.5,4.16667 115.5,4.5C 114.234,5.0899 112.901,5.5899 111.5,6C 100.839,6.49984 90.1719,6.6665 79.5,6.5C 78.4324,5.56552 77.099,5.23219 75.5,5.5C 71.6478,4.35633 67.6478,4.35633 63.5,5.5C 63.5,4.5 63.5,3.5 63.5,2.5 Z"/></g>
<g><path style="opacity:0.999" fill="#feaeee" d="M 24.5,7.5 C 23.0048,7.98869 21.6715,8.65536 20.5,9.5C 18.6203,9.22911 17.287,9.89578 16.5,11.5C 15.5139,15.97 15.1805,20.6367 15.5,25.5C 14.1667,25.5 12.8333,25.5 11.5,25.5C 11.5,19.1667 11.5,12.8333 11.5,6.5C 12.5,6.5 13.5,6.5 14.5,6.5C 15.1174,6.61071 15.6174,6.94404 16,7.5C 19.0243,4.96639 21.8577,4.96639 24.5,7.5 Z"/></g>
<g><path style="opacity:0.997" fill="#fba9dc" d="M 54.5,3.5 C 57.0101,3.05351 59.0101,3.72017 60.5,5.5C 57.6098,10.1369 55.2764,15.1369 53.5,20.5C 53.4138,17.852 53.0805,15.1853 52.5,12.5C 52.8333,10.5 53.1667,8.5 53.5,6.5C 54.3382,6.15829 54.6716,5.49162 54.5,4.5C 54.5,4.16667 54.5,3.83333 54.5,3.5 Z"/></g>
<g><path style="opacity:0.227" fill="#bfc57c" d="M 115.5,4.5 C 115.795,6.73535 115.461,8.73535 114.5,10.5C 114.737,9.20895 114.404,8.20895 113.5,7.5C 101.988,7.8281 90.6544,7.49477 79.5,6.5C 90.1719,6.6665 100.839,6.49984 111.5,6C 112.901,5.5899 114.234,5.0899 115.5,4.5 Z"/></g>
<g><path style="opacity:0.22" fill="#ccc271" d="M 120.5,6.5 C 125.179,6.33418 129.845,6.50085 134.5,7C 135.056,7.38258 135.389,7.88258 135.5,8.5C 134.833,8.83333 134.167,9.16667 133.5,9.5C 133.5,8.16667 132.833,7.5 131.5,7.5C 127.629,7.81497 123.962,7.48164 120.5,6.5 Z"/></g>
<g><path style="opacity:0.997" fill="#feadec" d="M 35.5,5.5 C 37.1436,6.31643 38.3103,7.64977 39,9.5C 39.4983,12.8168 39.665,16.1501 39.5,19.5C 39.5,21.5 39.5,23.5 39.5,25.5C 37.8333,25.5 36.1667,25.5 34.5,25.5C 34.8047,20.2384 34.4714,15.0717 33.5,10C 31.5594,9.25711 29.7261,9.42378 28,10.5C 27.501,14.8206 27.3343,19.1539 27.5,23.5C 26.4479,25.256 24.7812,25.9227 22.5,25.5C 22.6659,20.4889 22.4993,15.4889 22,10.5C 21.6174,9.94404 21.1174,9.61071 20.5,9.5C 21.6715,8.65536 23.0048,7.98869 24.5,7.5C 25.1174,7.61071 25.6174,7.94404 26,8.5C 28.5463,5.81442 31.713,4.81442 35.5,5.5 Z"/></g>
<g><path style="opacity:0.236" fill="#feb445" d="M 113.5,7.5 C 114.404,8.20895 114.737,9.20895 114.5,10.5C 109.203,11.0325 109.203,11.8658 114.5,13C 113.568,16.0854 112.901,19.2521 112.5,22.5C 111.678,24.3885 110.845,26.3885 110,28.5C 109,29.8333 108,29.8333 107,28.5C 107.196,24.2091 107.363,19.8757 107.5,15.5C 105.833,15.5 104.167,15.5 102.5,15.5C 102.483,13.4352 102.15,11.4352 101.5,9.5C 101.5,9.16667 101.5,8.83333 101.5,8.5C 105.702,8.81675 109.702,8.48342 113.5,7.5 Z"/></g>
<g><path style="opacity:0.465" fill="#33d9f6" d="M 5.5,0.5 C 8.5,0.5 11.5,0.5 14.5,0.5C 14.5,0.833333 14.5,1.16667 14.5,1.5C 9.84793,1.169 6.84793,3.169 5.5,7.5C 3.55833,12.0557 2.89166,17.0557 3.5,22.5C 2.88258,22.3893 2.38258,22.056 2,21.5C 1.50042,14.8417 1.33375,8.17499 1.5,1.5C 3.09903,1.76781 4.43236,1.43448 5.5,0.5 Z"/></g>
<g><path style="opacity:0.254" fill="#feb240" d="M 101.5,8.5 C 101.5,8.83333 101.5,9.16667 101.5,9.5C 100.178,9.33003 99.0113,9.66337 98,10.5C 97.3179,12.9383 97.8179,15.1049 99.5,17C 98.3989,21.6366 96.8989,26.1366 95,30.5C 94.586,30.9574 94.086,31.2907 93.5,31.5C 92.5258,29.2573 92.1924,26.924 92.5,24.5C 92.9728,21.3035 93.6394,18.1368 94.5,15C 94.1667,14.5 93.8333,14 93.5,13.5C 92.8333,14.1667 92.1667,14.8333 91.5,15.5C 89.9291,14.6906 88.2624,14.3573 86.5,14.5C 89.3173,13.4944 91.8173,11.8278 94,9.5C 96.4339,8.67771 98.9339,8.34438 101.5,8.5 Z"/></g>
<g><path style="opacity:0.374" fill="#9f6ddf" d="M 8.5,6.5 C 8.32572,13.5352 8.65905,20.5352 9.5,27.5C 9.5,27.8333 9.5,28.1667 9.5,28.5C 8.14294,27.4097 7.14294,26.0764 6.5,24.5C 6.33391,18.8236 6.50058,13.1569 7,7.5C 7.38258,6.94404 7.88258,6.61071 8.5,6.5 Z"/></g>
<g><path style="opacity:0.28" fill="#f8b64b" d="M 79.5,6.5 C 90.6544,7.49477 101.988,7.8281 113.5,7.5C 109.702,8.48342 105.702,8.81675 101.5,8.5C 98.9339,8.34438 96.4339,8.67771 94,9.5C 91.8173,11.8278 89.3173,13.4944 86.5,14.5C 85.1535,16.5368 83.8202,18.5368 82.5,20.5C 82.1667,19.5 81.5,18.8333 80.5,18.5C 80.5,16.1667 80.5,13.8333 80.5,11.5C 80.1412,9.62901 79.1412,8.12901 77.5,7C 78.0944,6.53566 78.7611,6.36899 79.5,6.5 Z"/></g>
<g><path style="opacity:0.939" fill="#31f3f1" d="M 148.5,-0.5 C 148.833,-0.5 149.167,-0.5 149.5,-0.5C 149.5,13.8333 149.5,28.1667 149.5,42.5C 143.185,41.8905 136.851,41.5572 130.5,41.5C 132.902,40.0075 135.569,39.0075 138.5,38.5C 139.5,38.5 140.5,38.5 141.5,38.5C 144.561,39.3568 146.395,38.0235 147,34.5C 147.333,36.1667 147.667,37.8333 148,39.5C 148.667,30.5 148.667,21.5 148,12.5C 146.577,10.6549 145.41,8.65485 144.5,6.5C 143.473,5.20859 142.473,5.20859 141.5,6.5C 140.508,6.67158 139.842,6.33825 139.5,5.5C 138.4,4.44153 137.066,3.6082 135.5,3C 139.833,2.66667 144.167,2.33333 148.5,2C 145.183,1.50166 141.85,1.33499 138.5,1.5C 141.833,0.833333 145.167,0.166667 148.5,-0.5 Z"/></g>
<g><path style="opacity:0.498" fill="#f97e70" d="M 61.5,5.5 C 62.1667,5.5 62.8333,5.5 63.5,5.5C 62.8333,7.16667 62.1667,8.83333 61.5,10.5C 60.4861,12.5739 59.4861,14.5739 58.5,16.5C 59.1996,12.7627 60.1996,9.09608 61.5,5.5 Z"/></g>
<g><path style="opacity:0.316" fill="#fead47" d="M 78.5,16.5 C 77.3617,21.7509 74.0283,24.0843 68.5,23.5C 68.6721,19.466 69.1721,15.466 70,11.5C 73.4319,8.96591 73.2652,8.29924 69.5,9.5C 67.3623,13.5133 66.3623,17.8467 66.5,22.5C 65.9009,27.6845 64.5676,32.6845 62.5,37.5C 61.609,36.8902 60.609,36.5569 59.5,36.5C 64.1911,28.563 66.3577,19.8963 66,10.5C 65.1618,11.999 64.3285,12.3324 63.5,11.5C 66.5994,7.75971 70.5994,6.59305 75.5,8C 78.1252,10.1962 79.1252,13.0295 78.5,16.5 Z"/></g>
<g><path style="opacity:0.293" fill="#f9b345" d="M 118.5,5.5 C 118.842,6.33825 119.508,6.67158 120.5,6.5C 123.962,7.48164 127.629,7.81497 131.5,7.5C 131.152,11.5568 130.486,15.5568 129.5,19.5C 128.691,17.7078 128.191,15.7078 128,13.5C 127.026,15.8776 126.359,15.5443 126,12.5C 125.917,14.5064 125.417,15.5064 124.5,15.5C 124.663,13.1432 124.497,10.8098 124,8.5C 123.617,9.05596 123.117,9.38929 122.5,9.5C 120.972,8.69079 119.306,8.02412 117.5,7.5C 117.328,6.50838 117.662,5.84171 118.5,5.5 Z"/></g>
<g><path style="opacity:0.647" fill="#fb2bc6" d="M 53.5,6.5 C 53.1667,8.5 52.8333,10.5 52.5,12.5C 51.8571,14.0764 50.8571,15.4097 49.5,16.5C 48.3024,13.5738 47.3024,10.5738 46.5,7.5C 48.6074,6.53178 50.9407,6.19845 53.5,6.5 Z"/></g>
<g><path style="opacity:0.502" fill="#fe50a3" d="M 60.5,5.5 C 60.8333,5.5 61.1667,5.5 61.5,5.5C 60.1996,9.09608 59.1996,12.7627 58.5,16.5C 58.5,16.8333 58.5,17.1667 58.5,17.5C 58.0706,21.4626 56.7372,25.1293 54.5,28.5C 52.3364,28.7215 50.6697,29.7215 49.5,31.5C 50.8348,27.8285 52.1681,24.1618 53.5,20.5C 55.2764,15.1369 57.6098,10.1369 60.5,5.5 Z"/></g>
<g><path style="opacity:0.216" fill="#d6c061" d="M 136.5,8.5 C 138.141,11.1419 139.475,14.1419 140.5,17.5C 140.457,18.4164 140.124,19.0831 139.5,19.5C 139.715,17.8212 139.048,16.8212 137.5,16.5C 136.612,13.9455 136.279,11.2788 136.5,8.5 Z"/></g>
<g><path style="opacity:0.38" fill="#61a3ea" d="M 14.5,1.5 C 24.6806,1.17265 34.6806,1.50598 44.5,2.5C 35.8269,2.33358 27.1603,2.50025 18.5,3C 15.9644,3.18618 13.631,3.68618 11.5,4.5C 10.8333,4.5 10.5,4.83333 10.5,5.5C 9.83333,5.83333 9.16667,6.16667 8.5,6.5C 7.88258,6.61071 7.38258,6.94404 7,7.5C 6.50058,13.1569 6.33391,18.8236 6.5,24.5C 5.51114,19.0247 5.1778,13.358 5.5,7.5C 6.84793,3.169 9.84793,1.169 14.5,1.5 Z"/></g>
<g><path style="opacity:1" fill="#ffdfb1" d="M 101.5,9.5 C 102.15,11.4352 102.483,13.4352 102.5,15.5C 104.167,15.5 105.833,15.5 107.5,15.5C 107.363,19.8757 107.196,24.2091 107,28.5C 108,29.8333 109,29.8333 110,28.5C 110.845,26.3885 111.678,24.3885 112.5,22.5C 112.325,24.6208 112.659,26.6208 113.5,28.5C 111.564,29.259 109.731,30.259 108,31.5C 106.697,31.0217 105.531,30.355 104.5,29.5C 104.833,25.5 105.167,21.5 105.5,17.5C 103.856,17.2865 102.356,17.6198 101,18.5C 100.302,23.8177 98.4682,28.651 95.5,33C 93.2992,33.8249 91.4659,33.3249 90,31.5C 89.6012,31.7284 89.4346,32.0618 89.5,32.5C 89.1667,32.5 88.8333,32.5 88.5,32.5C 87.8333,32.5 87.1667,32.5 86.5,32.5C 88.3988,30.0359 89.7321,27.3693 90.5,24.5C 91.1667,24.5 91.8333,24.5 92.5,24.5C 92.1924,26.924 92.5258,29.2573 93.5,31.5C 94.086,31.2907 94.586,30.9574 95,30.5C 96.8989,26.1366 98.3989,21.6366 99.5,17C 97.8179,15.1049 97.3179,12.9383 98,10.5C 99.0113,9.66337 100.178,9.33003 101.5,9.5 Z"/></g>
<g><path style="opacity:0.388" fill="#feb442" d="M 117.5,7.5 C 119.306,8.02412 120.972,8.69079 122.5,9.5C 122.084,14.9927 120.918,20.3261 119,25.5C 117.89,27.0368 116.39,27.7035 114.5,27.5C 114.588,22.4636 115.088,17.4636 116,12.5C 121.406,11.2829 121.573,10.1162 116.5,9C 117.056,8.61742 117.389,8.11742 117.5,7.5 Z"/></g>
<g><path style="opacity:0.404" fill="#d43dd2" d="M 10.5,5.5 C 10.5,12.5 10.5,19.5 10.5,26.5C 12.5,26.5 14.5,26.5 16.5,26.5C 14.3926,27.4682 12.0593,27.8016 9.5,27.5C 8.65905,20.5352 8.32572,13.5352 8.5,6.5C 9.16667,6.16667 9.83333,5.83333 10.5,5.5 Z"/></g>
<g><path style="opacity:0.929" fill="#fdd9aa" d="M 75.5,5.5 C 77.099,5.23219 78.4324,5.56552 79.5,6.5C 78.7611,6.36899 78.0944,6.53566 77.5,7C 79.1412,8.12901 80.1412,9.62901 80.5,11.5C 79.8333,13.1667 79.1667,14.8333 78.5,16.5C 79.1252,13.0295 78.1252,10.1962 75.5,8C 70.5994,6.59305 66.5994,7.75971 63.5,11.5C 62.3907,15.6883 61.0574,19.6883 59.5,23.5C 58.5386,21.7354 58.2053,19.7354 58.5,17.5C 58.5,17.1667 58.5,16.8333 58.5,16.5C 59.4861,14.5739 60.4861,12.5739 61.5,10.5C 65.1198,6.11726 69.7865,4.45059 75.5,5.5 Z"/></g>
<g><path style="opacity:0.263" fill="#95d294" d="M 118.5,5.5 C 124.167,5.5 129.833,5.5 135.5,5.5C 139.706,6.88434 141.706,9.88434 141.5,14.5C 141.462,21.9794 140.462,29.3128 138.5,36.5C 138.167,36.5 137.833,36.5 137.5,36.5C 137.724,32.8212 138.058,29.1545 138.5,25.5C 138.833,23.5 139.167,21.5 139.5,19.5C 140.124,19.0831 140.457,18.4164 140.5,17.5C 139.475,14.1419 138.141,11.1419 136.5,8.5C 136.167,8.5 135.833,8.5 135.5,8.5C 135.389,7.88258 135.056,7.38258 134.5,7C 129.845,6.50085 125.179,6.33418 120.5,6.5C 119.508,6.67158 118.842,6.33825 118.5,5.5 Z"/></g>
<g><path style="opacity:0.435" fill="#fe1bca" d="M 20.5,9.5 C 21.1174,9.61071 21.6174,9.94404 22,10.5C 22.4993,15.4889 22.6659,20.4889 22.5,25.5C 20.901,25.2322 19.5676,25.5655 18.5,26.5C 17.8333,26.5 17.1667,26.5 16.5,26.5C 16.5,21.5 16.5,16.5 16.5,11.5C 17.287,9.89578 18.6203,9.22911 20.5,9.5 Z"/></g>
<g><path style="opacity:0.485" fill="#fe24ca" d="M 35.5,5.5 C 36.8333,5.5 38.1667,5.5 39.5,5.5C 42.0483,9.93011 44.0483,14.5968 45.5,19.5C 44.2502,19.5774 43.4169,20.244 43,21.5C 42.6667,20.5 42.3333,19.5 42,18.5C 41.6667,20.8333 41.3333,23.1667 41,25.5C 40.8091,23.2922 40.3091,21.2922 39.5,19.5C 39.665,16.1501 39.4983,12.8168 39,9.5C 38.3103,7.64977 37.1436,6.31643 35.5,5.5 Z"/></g>
<g><path style="opacity:0.997" fill="#feace2" d="M 52.5,12.5 C 53.0805,15.1853 53.4138,17.852 53.5,20.5C 52.1681,24.1618 50.8348,27.8285 49.5,31.5C 47.712,31.7852 46.0453,31.4519 44.5,30.5C 46.3706,27.7659 47.3706,24.7659 47.5,21.5C 47.7959,19.597 48.4625,17.9303 49.5,16.5C 50.8571,15.4097 51.8571,14.0764 52.5,12.5 Z"/></g>
<g><path style="opacity:0.37" fill="#fe9d54" d="M 59.5,36.5 C 57.7085,36.366 56.0418,36.6993 54.5,37.5C 54.1949,33.7993 55.8616,31.466 59.5,30.5C 58.3112,29.5713 56.9778,29.238 55.5,29.5C 58.7337,28.9114 60.067,26.9114 59.5,23.5C 61.0574,19.6883 62.3907,15.6883 63.5,11.5C 64.3285,12.3324 65.1618,11.999 66,10.5C 66.3577,19.8963 64.1911,28.563 59.5,36.5 Z"/></g>
<g><path style="opacity:0.477" fill="#fe34ce" d="M 34.5,25.5 C 34.1667,25.5 33.8333,25.5 33.5,25.5C 31.6264,24.7148 29.6264,24.0482 27.5,23.5C 27.3343,19.1539 27.501,14.8206 28,10.5C 29.7261,9.42378 31.5594,9.25711 33.5,10C 34.4714,15.0717 34.8047,20.2384 34.5,25.5 Z"/></g>
<g><path style="opacity:0.389" fill="#feb546" d="M 129.5,19.5 C 128.921,22.3311 127.588,24.6644 125.5,26.5C 123.278,26.4413 122.278,25.2747 122.5,23C 122.867,20.2918 123.534,17.7918 124.5,15.5C 125.417,15.5064 125.917,14.5064 126,12.5C 126.359,15.5443 127.026,15.8776 128,13.5C 128.191,15.7078 128.691,17.7078 129.5,19.5 Z"/></g>
<g><path style="opacity:0.304" fill="#6eddad" d="M 141.5,14.5 C 142.577,21.0261 142.411,27.6928 141,34.5C 140.583,35.756 139.75,36.4226 138.5,36.5C 140.462,29.3128 141.462,21.9794 141.5,14.5 Z"/></g>
<g><path style="opacity:0.818" fill="#fb80e3" d="M 10.5,5.5 C 12.099,5.23219 13.4324,5.56552 14.5,6.5C 13.5,6.5 12.5,6.5 11.5,6.5C 11.5,12.8333 11.5,19.1667 11.5,25.5C 12.8333,25.5 14.1667,25.5 15.5,25.5C 15.1805,20.6367 15.5139,15.97 16.5,11.5C 16.5,16.5 16.5,21.5 16.5,26.5C 14.5,26.5 12.5,26.5 10.5,26.5C 10.5,19.5 10.5,12.5 10.5,5.5 Z"/></g>
<g><path style="opacity:0.384" fill="#fe2fbe" d="M 45.5,19.5 C 46.1667,20.1667 46.8333,20.8333 47.5,21.5C 47.3706,24.7659 46.3706,27.7659 44.5,30.5C 46.0453,31.4519 47.712,31.7852 49.5,31.5C 47.2743,32.7563 44.941,32.7563 42.5,31.5C 39.9922,29.0764 36.9922,27.4097 33.5,26.5C 33.5,26.1667 33.5,25.8333 33.5,25.5C 33.8333,25.5 34.1667,25.5 34.5,25.5C 36.1667,25.5 37.8333,25.5 39.5,25.5C 39.5,23.5 39.5,21.5 39.5,19.5C 40.3091,21.2922 40.8091,23.2922 41,25.5C 41.3333,23.1667 41.6667,20.8333 42,18.5C 42.3333,19.5 42.6667,20.5 43,21.5C 43.4169,20.244 44.2502,19.5774 45.5,19.5 Z"/></g>
<g><path style="opacity:0.38" fill="#ffb342" d="M 90.5,24.5 C 89.7321,27.3693 88.3988,30.0359 86.5,32.5C 85.5,32.5 84.5,32.5 83.5,32.5C 83.0631,27.5884 83.8964,22.9217 86,18.5C 87.3957,16.4732 89.0624,16.1398 91,17.5C 91.0178,19.7972 90.8511,22.1305 90.5,24.5 Z"/></g>
<g><path style="opacity:0.453" fill="#fcb443" d="M 135.5,8.5 C 135.833,8.5 136.167,8.5 136.5,8.5C 136.279,11.2788 136.612,13.9455 137.5,16.5C 136.793,20.917 134.793,24.5837 131.5,27.5C 131.167,26.8333 130.833,26.1667 130.5,25.5C 131.316,20.1123 132.316,14.779 133.5,9.5C 134.167,9.16667 134.833,8.83333 135.5,8.5 Z"/></g>
<g><path style="opacity:1" fill="#ffdeb0" d="M 78.5,16.5 C 79.1667,14.8333 79.8333,13.1667 80.5,11.5C 80.5,13.8333 80.5,16.1667 80.5,18.5C 79.5569,21.1092 77.8903,23.1092 75.5,24.5C 73.5648,25.1495 71.5648,25.4828 69.5,25.5C 69.1583,24.6618 68.4916,24.3284 67.5,24.5C 67.6716,23.5084 67.3382,22.8417 66.5,22.5C 66.3623,17.8467 67.3623,13.5133 69.5,9.5C 73.2652,8.29924 73.4319,8.96591 70,11.5C 69.1721,15.466 68.6721,19.466 68.5,23.5C 74.0283,24.0843 77.3617,21.7509 78.5,16.5 Z"/></g>
<g><path style="opacity:0.215" fill="#feb347" d="M 83.5,36.5 C 80.8333,36.5 78.1667,36.5 75.5,36.5C 76.5009,35.2113 76.3342,33.8779 75,32.5C 74.5488,34.9288 73.7155,35.0955 72.5,33C 74.1458,31.4452 74.4791,29.7785 73.5,28C 74.1667,27.6667 74.8333,27.3333 75.5,27C 72.681,26.8973 70.681,26.3973 69.5,25.5C 71.5648,25.4828 73.5648,25.1495 75.5,24.5C 75.56,25.0431 75.8933,25.3764 76.5,25.5C 80.5242,21.5795 81.5242,22.5795 79.5,28.5C 79.8999,31.7407 81.2332,34.4074 83.5,36.5 Z"/></g>
<g><path style="opacity:1" fill="#fee0b2" d="M 115.5,3.5 C 117.179,3.28519 118.179,3.95186 118.5,5.5C 117.662,5.84171 117.328,6.50838 117.5,7.5C 117.389,8.11742 117.056,8.61742 116.5,9C 121.573,10.1162 121.406,11.2829 116,12.5C 115.088,17.4636 114.588,22.4636 114.5,27.5C 116.39,27.7035 117.89,27.0368 119,25.5C 120.918,20.3261 122.084,14.9927 122.5,9.5C 123.117,9.38929 123.617,9.05596 124,8.5C 124.497,10.8098 124.663,13.1432 124.5,15.5C 123.534,17.7918 122.867,20.2918 122.5,23C 122.278,25.2747 123.278,26.4413 125.5,26.5C 125.5,27.1667 125.833,27.5 126.5,27.5C 124.511,28.8866 122.678,28.5532 121,26.5C 118.93,29.4076 116.43,30.0743 113.5,28.5C 112.659,26.6208 112.325,24.6208 112.5,22.5C 112.901,19.2521 113.568,16.0854 114.5,13C 109.203,11.8658 109.203,11.0325 114.5,10.5C 115.461,8.73535 115.795,6.73535 115.5,4.5C 115.5,4.16667 115.5,3.83333 115.5,3.5 Z"/></g>
<g><path style="opacity:0.505" fill="#14f4ec" d="M 141.5,38.5 C 144.373,33.6754 145.706,28.3421 145.5,22.5C 145.378,18.1224 144.878,13.7891 144,9.5C 142.583,8.92206 141.75,7.92206 141.5,6.5C 142.473,5.20859 143.473,5.20859 144.5,6.5C 145.41,8.65485 146.577,10.6549 148,12.5C 148.667,21.5 148.667,30.5 148,39.5C 147.667,37.8333 147.333,36.1667 147,34.5C 146.395,38.0235 144.561,39.3568 141.5,38.5 Z"/></g>
<g><path style="opacity:0.369" fill="#43c3ef" d="M 5.5,7.5 C 5.1778,13.358 5.51114,19.0247 6.5,24.5C 7.14294,26.0764 8.14294,27.4097 9.5,28.5C 9.5,28.8333 9.5,29.1667 9.5,29.5C 9.5,29.8333 9.5,30.1667 9.5,30.5C 8.50838,30.3284 7.84171,30.6618 7.5,31.5C 3.99148,29.6209 2.65814,26.6209 3.5,22.5C 2.89166,17.0557 3.55833,12.0557 5.5,7.5 Z"/></g>
<g><path style="opacity:0.649" fill="#fa57aa" d="M 27.5,23.5 C 29.6264,24.0482 31.6264,24.7148 33.5,25.5C 33.5,25.8333 33.5,26.1667 33.5,26.5C 28.5,26.5 23.5,26.5 18.5,26.5C 19.5676,25.5655 20.901,25.2322 22.5,25.5C 24.7812,25.9227 26.4479,25.256 27.5,23.5 Z"/></g>
<g><path style="opacity:0.298" fill="#ff7873" d="M 58.5,17.5 C 58.2053,19.7354 58.5386,21.7354 59.5,23.5C 60.067,26.9114 58.7337,28.9114 55.5,29.5C 54.8333,30.8333 53.8333,31.8333 52.5,32.5C 52.7329,30.9382 53.3995,29.6049 54.5,28.5C 56.7372,25.1293 58.0706,21.4626 58.5,17.5 Z"/></g>
<g><path style="opacity:0.303" fill="#feb341" d="M 104.5,29.5 C 102.352,29.3894 102.019,30.056 103.5,31.5C 99.8446,32.4104 96.3446,33.7437 93,35.5C 91.3576,35.0222 90.1909,34.0222 89.5,32.5C 89.4346,32.0618 89.6012,31.7284 90,31.5C 91.4659,33.3249 93.2992,33.8249 95.5,33C 98.4682,28.651 100.302,23.8177 101,18.5C 102.356,17.6198 103.856,17.2865 105.5,17.5C 105.167,21.5 104.833,25.5 104.5,29.5 Z"/></g>
<g><path style="opacity:0.318" fill="#f36787" d="M 16.5,26.5 C 17.1667,26.5 17.8333,26.5 18.5,26.5C 23.5,26.5 28.5,26.5 33.5,26.5C 36.9922,27.4097 39.9922,29.0764 42.5,31.5C 40.5,31.1667 38.5,30.8333 36.5,30.5C 36.1667,29.5 35.5,28.8333 34.5,28.5C 31.8541,27.8356 29.0208,27.5022 26,27.5C 20.9215,27.4055 16.0882,28.0722 11.5,29.5C 10.8333,29.5 10.1667,29.5 9.5,29.5C 9.5,29.1667 9.5,28.8333 9.5,28.5C 9.5,28.1667 9.5,27.8333 9.5,27.5C 12.0593,27.8016 14.3926,27.4682 16.5,26.5 Z"/></g>
<g><path style="opacity:0.344" fill="#ef8866" d="M 34.5,28.5 C 26.5439,27.8053 18.8772,28.8053 11.5,31.5C 11.5,30.8333 11.5,30.1667 11.5,29.5C 16.0882,28.0722 20.9215,27.4055 26,27.5C 29.0208,27.5022 31.8541,27.8356 34.5,28.5 Z"/></g>
<g><path style="opacity:0.969" fill="#f9dcad" d="M 66.5,22.5 C 67.3382,22.8417 67.6716,23.5084 67.5,24.5C 67.8828,29.155 66.8828,33.4884 64.5,37.5C 64.6236,38.1067 64.9569,38.44 65.5,38.5C 64.9423,39.7899 63.9423,40.6232 62.5,41C 59.854,41.4974 57.1873,41.6641 54.5,41.5C 54.1667,41.5 53.8333,41.5 53.5,41.5C 53.1667,40.5 52.5,39.8333 51.5,39.5C 51.5,39.1667 51.5,38.8333 51.5,38.5C 52.4614,36.7354 52.7947,34.7354 52.5,32.5C 53.8333,31.8333 54.8333,30.8333 55.5,29.5C 56.9778,29.238 58.3112,29.5713 59.5,30.5C 55.8616,31.466 54.1949,33.7993 54.5,37.5C 55.3121,38.9931 56.6455,39.6598 58.5,39.5C 60.3545,39.6598 61.6879,38.9931 62.5,37.5C 64.5676,32.6845 65.9009,27.6845 66.5,22.5 Z"/></g>
<g><path style="opacity:0.215" fill="#fdae4b" d="M 67.5,24.5 C 68.4916,24.3284 69.1583,24.6618 69.5,25.5C 70.681,26.3973 72.681,26.8973 75.5,27C 74.8333,27.3333 74.1667,27.6667 73.5,28C 74.4791,29.7785 74.1458,31.4452 72.5,33C 73.7155,35.0955 74.5488,34.9288 75,32.5C 76.3342,33.8779 76.5009,35.2113 75.5,36.5C 72.4816,36.3354 69.4816,36.502 66.5,37C 65.944,37.3826 65.6107,37.8826 65.5,38.5C 64.9569,38.44 64.6236,38.1067 64.5,37.5C 66.8828,33.4884 67.8828,29.155 67.5,24.5 Z"/></g>
<g><path style="opacity:0.982" fill="#ffe0b4" d="M 92.5,24.5 C 91.8333,24.5 91.1667,24.5 90.5,24.5C 90.8511,22.1305 91.0178,19.7972 91,17.5C 89.0624,16.1398 87.3957,16.4732 86,18.5C 83.8964,22.9217 83.0631,27.5884 83.5,32.5C 84.5,32.5 85.5,32.5 86.5,32.5C 87.1667,32.5 87.8333,32.5 88.5,32.5C 86.9119,34.6157 84.9119,34.949 82.5,33.5C 81.233,29.1684 81.233,24.835 82.5,20.5C 83.8202,18.5368 85.1535,16.5368 86.5,14.5C 88.2624,14.3573 89.9291,14.6906 91.5,15.5C 92.1667,14.8333 92.8333,14.1667 93.5,13.5C 93.8333,14 94.1667,14.5 94.5,15C 93.6394,18.1368 92.9728,21.3035 92.5,24.5 Z"/></g>
<g><path style="opacity:1" fill="#fee1b6" d="M 131.5,7.5 C 132.833,7.5 133.5,8.16667 133.5,9.5C 132.316,14.779 131.316,20.1123 130.5,25.5C 130.833,26.1667 131.167,26.8333 131.5,27.5C 134.793,24.5837 136.793,20.917 137.5,16.5C 139.048,16.8212 139.715,17.8212 139.5,19.5C 137.295,24.3779 133.961,28.3779 129.5,31.5C 128.662,31.1583 128.328,30.4916 128.5,29.5C 128.5,28.1667 127.833,27.5 126.5,27.5C 125.833,27.5 125.5,27.1667 125.5,26.5C 127.588,24.6644 128.921,22.3311 129.5,19.5C 130.486,15.5568 131.152,11.5568 131.5,7.5 Z"/></g>
<g><path style="opacity:0.193" fill="#feb342" d="M 80.5,18.5 C 81.5,18.8333 82.1667,19.5 82.5,20.5C 81.233,24.835 81.233,29.1684 82.5,33.5C 84.9119,34.949 86.9119,34.6157 88.5,32.5C 88.8333,32.5 89.1667,32.5 89.5,32.5C 90.1909,34.0222 91.3576,35.0222 93,35.5C 96.3446,33.7437 99.8446,32.4104 103.5,31.5C 102.019,30.056 102.352,29.3894 104.5,29.5C 105.531,30.355 106.697,31.0217 108,31.5C 109.731,30.259 111.564,29.259 113.5,28.5C 116.43,30.0743 118.93,29.4076 121,26.5C 122.678,28.5532 124.511,28.8866 126.5,27.5C 127.833,27.5 128.5,28.1667 128.5,29.5C 123.122,30.0046 119.455,32.6713 117.5,37.5C 106.346,36.5052 95.0123,36.1719 83.5,36.5C 81.2332,34.4074 79.8999,31.7407 79.5,28.5C 81.5242,22.5795 80.5242,21.5795 76.5,25.5C 75.8933,25.3764 75.56,25.0431 75.5,24.5C 77.8903,23.1092 79.5569,21.1092 80.5,18.5 Z"/></g>
<g><path style="opacity:0.239" fill="#bda682" d="M 9.5,29.5 C 10.1667,29.5 10.8333,29.5 11.5,29.5C 11.5,30.1667 11.5,30.8333 11.5,31.5C 10.8333,31.8333 10.1667,32.1667 9.5,32.5C 9.5,31.8333 9.5,31.1667 9.5,30.5C 9.5,30.1667 9.5,29.8333 9.5,29.5 Z"/></g>
<g><path style="opacity:1" fill="#fadeae" d="M 128.5,29.5 C 128.328,30.4916 128.662,31.1583 129.5,31.5C 128.833,33.8333 128.167,36.1667 127.5,38.5C 127.389,39.1174 127.056,39.6174 126.5,40C 124.527,40.4955 122.527,40.6621 120.5,40.5C 119.833,40.1667 119.167,39.8333 118.5,39.5C 118.167,38.8333 117.833,38.1667 117.5,37.5C 119.455,32.6713 123.122,30.0046 128.5,29.5 Z"/></g>
<g><path style="opacity:0.314" fill="#f29a57" d="M 36.5,30.5 C 38.5,30.8333 40.5,31.1667 42.5,31.5C 42.5,32.1667 42.5,32.8333 42.5,33.5C 40.0733,33.477 37.74,32.977 35.5,32C 36.056,31.6174 36.3893,31.1174 36.5,30.5 Z"/></g>
<g><path style="opacity:0.329" fill="#fc6186" d="M 54.5,28.5 C 53.3995,29.6049 52.7329,30.9382 52.5,32.5C 51.7387,33.3909 50.7387,34.0576 49.5,34.5C 47.8653,33.9537 46.1986,33.6204 44.5,33.5C 43.8333,33.5 43.1667,33.5 42.5,33.5C 42.5,32.8333 42.5,32.1667 42.5,31.5C 44.941,32.7563 47.2743,32.7563 49.5,31.5C 50.6697,29.7215 52.3364,28.7215 54.5,28.5 Z"/></g>
<g><path style="opacity:0.457" fill="#38ecf7" d="M -0.5,0.5 C 1.5,0.5 3.5,0.5 5.5,0.5C 4.43236,1.43448 3.09903,1.76781 1.5,1.5C 1.33375,8.17499 1.50042,14.8417 2,21.5C 2.38258,22.056 2.88258,22.3893 3.5,22.5C 2.65814,26.6209 3.99148,29.6209 7.5,31.5C 5.42426,33.3692 5.09092,35.5359 6.5,38C 10.7514,39.1946 15.0848,39.6946 19.5,39.5C 25.8333,40.1667 32.1667,40.8333 38.5,41.5C 27.8281,41.3335 17.1615,41.5002 6.5,42C 4.29221,42.1909 2.29221,42.6909 0.5,43.5C 0.166667,43.5 -0.166667,43.5 -0.5,43.5C -0.5,29.1667 -0.5,14.8333 -0.5,0.5 Z"/></g>
<g><path style="opacity:0.216" fill="#f8b648" d="M 139.5,19.5 C 139.167,21.5 138.833,23.5 138.5,25.5C 137.26,28.6468 136.26,31.9801 135.5,35.5C 132.783,35.974 130.45,36.974 128.5,38.5C 128.167,38.5 127.833,38.5 127.5,38.5C 128.167,36.1667 128.833,33.8333 129.5,31.5C 133.961,28.3779 137.295,24.3779 139.5,19.5 Z"/></g>
<g><path style="opacity:0.231" fill="#36ecd7" d="M 135.5,5.5 C 136.833,5.5 138.167,5.5 139.5,5.5C 139.842,6.33825 140.508,6.67158 141.5,6.5C 141.75,7.92206 142.583,8.92206 144,9.5C 144.878,13.7891 145.378,18.1224 145.5,22.5C 145.706,28.3421 144.373,33.6754 141.5,38.5C 140.5,38.5 139.5,38.5 138.5,38.5C 138.5,37.8333 138.5,37.1667 138.5,36.5C 139.75,36.4226 140.583,35.756 141,34.5C 142.411,27.6928 142.577,21.0261 141.5,14.5C 141.706,9.88434 139.706,6.88434 135.5,5.5 Z"/></g>
<g><path style="opacity:0.618" fill="#edd63d" d="M 34.5,28.5 C 35.5,28.8333 36.1667,29.5 36.5,30.5C 36.3893,31.1174 36.056,31.6174 35.5,32C 37.74,32.977 40.0733,33.477 42.5,33.5C 43.1667,33.5 43.8333,33.5 44.5,33.5C 46.2294,34.2362 47.2294,35.5695 47.5,37.5C 45.9582,38.3007 44.2915,38.634 42.5,38.5C 31.9269,37.8618 21.2602,36.8618 10.5,35.5C 8.61818,34.779 8.28485,33.779 9.5,32.5C 10.1667,32.1667 10.8333,31.8333 11.5,31.5C 18.8772,28.8053 26.5439,27.8053 34.5,28.5 Z"/></g>
<g><path style="opacity:1" fill="#fdf9ce" d="M 21.5,29.5 C 25.8461,29.3343 30.1794,29.501 34.5,30C 32.6228,31.1853 30.6228,32.1853 28.5,33C 34.2699,33.4616 39.9365,34.4616 45.5,36C 37.5198,35.8904 29.5198,35.5571 21.5,35C 23.0009,33.7485 24.6675,32.7485 26.5,32C 21.2978,31.4519 16.2978,32.2852 11.5,34.5C 10.3044,34.1543 10.3044,33.6543 11.5,33C 14.8502,31.5137 18.1835,30.347 21.5,29.5 Z"/></g>
<g><path style="opacity:0.267" fill="#ef916a" d="M 52.5,32.5 C 52.7947,34.7354 52.4614,36.7354 51.5,38.5C 50.4324,37.5655 49.099,37.2322 47.5,37.5C 47.2294,35.5695 46.2294,34.2362 44.5,33.5C 46.1986,33.6204 47.8653,33.9537 49.5,34.5C 50.7387,34.0576 51.7387,33.3909 52.5,32.5 Z"/></g>
<g><path style="opacity:0.216" fill="#d0be6d" d="M 75.5,36.5 C 78.1667,36.5 80.8333,36.5 83.5,36.5C 95.0123,36.1719 106.346,36.5052 117.5,37.5C 101.325,37.1703 85.3246,37.5036 69.5,38.5C 68.1667,38.5 66.8333,38.5 65.5,38.5C 65.6107,37.8826 65.944,37.3826 66.5,37C 69.4816,36.502 72.4816,36.3354 75.5,36.5 Z"/></g>
<g><path style="opacity:0.541" fill="#fab345" d="M 126.5,31.5 C 127.621,33.0894 127.454,34.7561 126,36.5C 123.28,39.3591 121.614,39.0257 121,35.5C 122.5,33.5313 124.333,32.198 126.5,31.5 Z"/></g>
<g><path style="opacity:0.149" fill="#cbc06c" d="M 138.5,25.5 C 138.058,29.1545 137.724,32.8212 137.5,36.5C 136.609,37.1098 135.609,37.4431 134.5,37.5C 132.435,37.5172 130.435,37.8505 128.5,38.5C 130.45,36.974 132.783,35.974 135.5,35.5C 136.26,31.9801 137.26,28.6468 138.5,25.5 Z"/></g>
<g><path style="opacity:0.307" fill="#bfc368" d="M 10.5,35.5 C 21.2602,36.8618 31.9269,37.8618 42.5,38.5C 34.8333,38.5 27.1667,38.5 19.5,38.5C 17.0314,37.6829 14.3647,37.1829 11.5,37C 10.944,36.6174 10.6107,36.1174 10.5,35.5 Z"/></g>
<g><path style="opacity:0.183" fill="#a0c991" d="M 69.5,38.5 C 85.3246,37.5036 101.325,37.1703 117.5,37.5C 117.833,38.1667 118.167,38.8333 118.5,39.5C 117.167,39.5 115.833,39.5 114.5,39.5C 99.676,38.5039 84.676,38.1706 69.5,38.5 Z"/></g>
<g><path style="opacity:0.231" fill="#65d3c6" d="M 9.5,30.5 C 9.5,31.1667 9.5,31.8333 9.5,32.5C 8.28485,33.779 8.61818,34.779 10.5,35.5C 10.6107,36.1174 10.944,36.6174 11.5,37C 14.3647,37.1829 17.0314,37.6829 19.5,38.5C 19.5,38.8333 19.5,39.1667 19.5,39.5C 15.0848,39.6946 10.7514,39.1946 6.5,38C 5.09092,35.5359 5.42426,33.3692 7.5,31.5C 7.84171,30.6618 8.50838,30.3284 9.5,30.5 Z"/></g>
<g><path style="opacity:0.3" fill="#96c599" d="M 47.5,37.5 C 49.099,37.2322 50.4324,37.5655 51.5,38.5C 51.5,38.8333 51.5,39.1667 51.5,39.5C 40.8333,39.5 30.1667,39.5 19.5,39.5C 19.5,39.1667 19.5,38.8333 19.5,38.5C 27.1667,38.5 34.8333,38.5 42.5,38.5C 44.2915,38.634 45.9582,38.3007 47.5,37.5 Z"/></g>
<g><path style="opacity:0.498" fill="#deb464" d="M 59.5,36.5 C 60.609,36.5569 61.609,36.8902 62.5,37.5C 61.6879,38.9931 60.3545,39.6598 58.5,39.5C 56.6455,39.6598 55.3121,38.9931 54.5,37.5C 56.0418,36.6993 57.7085,36.366 59.5,36.5 Z"/></g>
<g><path style="opacity:0.396" fill="#6cd0c5" d="M 19.5,39.5 C 30.1667,39.5 40.8333,39.5 51.5,39.5C 52.5,39.8333 53.1667,40.5 53.5,41.5C 52.5,41.5 51.5,41.5 50.5,41.5C 46.5,41.5 42.5,41.5 38.5,41.5C 32.1667,40.8333 25.8333,40.1667 19.5,39.5 Z"/></g>
<g><path style="opacity:0.346" fill="#60daca" d="M 137.5,36.5 C 137.833,36.5 138.167,36.5 138.5,36.5C 138.5,37.1667 138.5,37.8333 138.5,38.5C 135.569,39.0075 132.902,40.0075 130.5,41.5C 109.929,40.3934 89.2623,40.3934 68.5,41.5C 68.9175,40.7784 69.5842,40.2784 70.5,40C 85.1629,39.5001 99.8295,39.3334 114.5,39.5C 115.833,39.5 117.167,39.5 118.5,39.5C 119.167,39.8333 119.833,40.1667 120.5,40.5C 121.622,41.1558 122.955,41.4892 124.5,41.5C 128.041,40.4513 131.374,39.118 134.5,37.5C 135.609,37.4431 136.609,37.1098 137.5,36.5 Z"/></g>
<g><path style="opacity:0.49" fill="#8dd0a3" d="M 134.5,37.5 C 131.374,39.118 128.041,40.4513 124.5,41.5C 122.955,41.4892 121.622,41.1558 120.5,40.5C 122.527,40.6621 124.527,40.4955 126.5,40C 127.056,39.6174 127.389,39.1174 127.5,38.5C 127.833,38.5 128.167,38.5 128.5,38.5C 130.435,37.8505 132.435,37.5172 134.5,37.5 Z"/></g>
<g><path style="opacity:0.698" fill="#78d2b8" d="M 65.5,38.5 C 66.8333,38.5 68.1667,38.5 69.5,38.5C 84.676,38.1706 99.676,38.5039 114.5,39.5C 99.8295,39.3334 85.1629,39.5001 70.5,40C 69.5842,40.2784 68.9175,40.7784 68.5,41.5C 63.6792,42.5974 59.0126,42.5974 54.5,41.5C 57.1873,41.6641 59.854,41.4974 62.5,41C 63.9423,40.6232 64.9423,39.7899 65.5,38.5 Z"/></g>
<g><path style="opacity:0.659" fill="#75e3e8" d="M 130.5,41.5 C 136.851,41.5572 143.185,41.8905 149.5,42.5C 149.5,43.1667 149.5,43.8333 149.5,44.5C 99.5,44.5 49.5,44.5 -0.5,44.5C -0.5,44.1667 -0.5,43.8333 -0.5,43.5C -0.166667,43.5 0.166667,43.5 0.5,43.5C 18.1698,43.6666 35.8365,43.4999 53.5,43C 52.2625,42.7679 51.2625,42.2679 50.5,41.5C 51.5,41.5 52.5,41.5 53.5,41.5C 53.8333,41.5 54.1667,41.5 54.5,41.5C 59.0126,42.5974 63.6792,42.5974 68.5,41.5C 89.2623,40.3934 109.929,40.3934 130.5,41.5 Z"/></g>
<g><path style="opacity:1" fill="#2ed7f0" d="M 38.5,41.5 C 42.5,41.5 46.5,41.5 50.5,41.5C 51.2625,42.2679 52.2625,42.7679 53.5,43C 35.8365,43.4999 18.1698,43.6666 0.5,43.5C 2.29221,42.6909 4.29221,42.1909 6.5,42C 17.1615,41.5002 27.8281,41.3335 38.5,41.5 Z"/></g>
</svg>
