<?xml version="1.0" encoding="UTF-8"?>
<!DOCTYPE svg PUBLIC "-//W3C//DTD SVG 1.1//EN" "http://www.w3.org/Graphics/SVG/1.1/DTD/svg11.dtd">
<svg xmlns="http://www.w3.org/2000/svg" version="1.1" width="500px" height="500px" style="shape-rendering:geometricPrecision; text-rendering:geometricPrecision; image-rendering:optimizeQuality; fill-rule:evenodd; clip-rule:evenodd" xmlns:xlink="http://www.w3.org/1999/xlink">
<g><path style="opacity:1" fill="#030100" d="M -0.5,-0.5 C 20.8333,-0.5 42.1667,-0.5 63.5,-0.5C 39.4624,18.5373 18.1291,40.204 -0.5,64.5C -0.5,42.8333 -0.5,21.1667 -0.5,-0.5 Z"/></g>
<g><path style="opacity:1" fill="#000000" d="M 73.5,-0.5 C 200.833,-0.5 328.167,-0.5 455.5,-0.5C 461.437,5.76672 467.771,11.7667 474.5,17.5C 480.176,23.177 485.509,29.177 490.5,35.5C 492.078,36.2978 493.744,36.7978 495.5,37C 494.692,37.3076 494.025,37.8076 493.5,38.5C 495.178,41.1727 497.178,43.506 499.5,45.5C 499.5,167.167 499.5,288.833 499.5,410.5C 489.649,424.825 478.816,438.492 467,451.5C 457.346,461.242 447.18,470.409 436.5,479C 435.167,480.333 435.167,481.667 436.5,483C 435.833,483.333 435.167,483.667 434.5,484C 437.788,483.338 441.121,482.338 444.5,481C 465.05,462.64 483.384,442.473 499.5,420.5C 499.5,446.833 499.5,473.167 499.5,499.5C 332.833,499.5 166.167,499.5 -0.5,499.5C -0.5,357.833 -0.5,216.167 -0.5,74.5C 20.126,45.5405 44.7927,20.5405 73.5,-0.5 Z"/></g>
<g><path style="opacity:1" fill="#160901" d="M 455.5,-0.5 C 470.167,-0.5 484.833,-0.5 499.5,-0.5C 499.5,14.8333 499.5,30.1667 499.5,45.5C 497.178,43.506 495.178,41.1727 493.5,38.5C 494.025,37.8076 494.692,37.3076 495.5,37C 493.744,36.7978 492.078,36.2978 490.5,35.5C 485.509,29.177 480.176,23.177 474.5,17.5C 467.771,11.7667 461.437,5.76672 455.5,-0.5 Z"/></g>
<g><path style="opacity:1" fill="#0a0f0f" d="M 63.5,-0.5 C 66.8333,-0.5 70.1667,-0.5 73.5,-0.5C 44.7927,20.5405 20.126,45.5405 -0.5,74.5C -0.5,71.1667 -0.5,67.8333 -0.5,64.5C 18.1291,40.204 39.4624,18.5373 63.5,-0.5 Z"/></g>
<g><path style="opacity:1" fill="#080f12" d="M 174.5,143.5 C 174.5,150.5 174.5,157.5 174.5,164.5C 173.469,165.355 172.303,166.022 171,166.5C 168.681,165.129 166.181,164.462 163.5,164.5C 166.832,163.918 170.166,163.084 173.5,162C 169.5,161.333 169.5,160.667 173.5,160C 172.034,159.365 170.7,158.531 169.5,157.5C 168.769,155.195 167.436,153.362 165.5,152C 167.228,149.616 167.561,147.116 166.5,144.5C 165.833,144.833 165.167,145.167 164.5,145.5C 158.953,143.295 153.453,141.295 148,139.5C 146.378,140.099 144.878,140.766 143.5,141.5C 141.983,141.511 140.816,142.177 140,143.5C 138.209,147.411 136.709,151.411 135.5,155.5C 133.57,155.771 132.236,156.771 131.5,158.5C 130.432,157.566 129.099,157.232 127.5,157.5C 127.691,165.201 127.358,172.868 126.5,180.5C 125.5,180.5 124.5,180.5 123.5,180.5C 123.917,173.455 123.917,166.455 123.5,159.5C 122.31,156.705 120.31,154.539 117.5,153C 118.308,152.692 118.975,152.192 119.5,151.5C 118.833,150.5 118.167,149.5 117.5,148.5C 120.432,146.375 121.098,143.709 119.5,140.5C 120.824,139.994 121.491,138.661 121.5,136.5C 127.834,134.25 134.001,131.583 140,128.5C 140.333,128.833 140.667,129.167 141,129.5C 145.961,127.513 150.461,127.513 154.5,129.5C 155.906,128.332 157.072,128.665 158,130.5C 158.333,130.167 158.667,129.833 159,129.5C 162.709,131.702 166.542,133.702 170.5,135.5C 168.554,137.083 166.554,137.583 164.5,137C 166.628,138.667 167.961,140.834 168.5,143.5C 168.833,142.833 169.167,142.167 169.5,141.5C 171.195,142.174 172.862,142.841 174.5,143.5 Z"/></g>
<g><path style="opacity:1" fill="#050b0d" d="M 362.5,137.5 C 354.826,137.334 347.159,137.5 339.5,138C 334.687,138.981 331.687,141.814 330.5,146.5C 327.671,146.325 326.004,147.658 325.5,150.5C 324.705,148.505 324.039,146.505 323.5,144.5C 323.821,143.183 324.154,141.849 324.5,140.5C 323.976,137.604 322.476,136.937 320,138.5C 319.392,140.154 318.892,141.821 318.5,143.5C 316.089,143.137 314.589,144.137 314,146.5C 313.333,145.833 312.667,145.167 312,144.5C 310.274,145.576 308.441,145.743 306.5,145C 302.564,141.912 298.23,139.578 293.5,138C 294.696,137.346 294.696,136.846 293.5,136.5C 292.251,138.475 290.751,138.809 289,137.5C 286.543,139.325 284.376,141.491 282.5,144C 277.58,143.083 273.247,144.249 269.5,147.5C 268.673,144.868 267.84,142.202 267,139.5C 265.069,136.895 263.236,136.895 261.5,139.5C 264.31,145.597 266.31,151.93 267.5,158.5C 267.158,159.338 266.492,159.672 265.5,159.5C 265.167,159.5 264.833,159.5 264.5,159.5C 262.224,159.756 261.057,161.09 261,163.5C 260.667,163.167 260.333,162.833 260,162.5C 261.273,159.84 262.107,156.84 262.5,153.5C 258.814,154.648 255.147,154.648 251.5,153.5C 249.097,154.704 246.764,155.038 244.5,154.5C 241.687,155.219 238.854,155.886 236,156.5C 235.055,156.905 234.388,157.572 234,158.5C 232.333,156.5 230.667,154.5 229,152.5C 228.333,153.167 227.667,153.833 227,154.5C 225.408,152.507 223.908,150.507 222.5,148.5C 221.148,149.524 219.815,150.524 218.5,151.5C 218.069,147.663 217.402,143.997 216.5,140.5C 216.573,138.973 215.906,137.973 214.5,137.5C 214.389,136.883 214.056,136.383 213.5,136C 216.196,135.235 218.696,134.068 221,132.5C 223.827,134.254 223.994,136.088 221.5,138C 222.191,139.067 222.691,140.234 223,141.5C 224.421,138.991 226.088,136.657 228,134.5C 231.485,135.718 235.152,136.384 239,136.5C 239.487,135.069 240.821,133.735 243,132.5C 245.773,132.884 248.44,134.217 251,136.5C 252.073,135.72 253.24,135.887 254.5,137C 253.167,137.667 253.167,138.333 254.5,139C 255.833,139.667 257.167,139.667 258.5,139C 261.014,136.943 262.347,134.61 262.5,132C 263.951,132.263 265.284,132.096 266.5,131.5C 267.833,130.5 267.833,129.5 266.5,128.5C 267.668,125.531 269.001,125.198 270.5,127.5C 271.192,126.975 271.692,126.308 272,125.5C 273,125.833 274,126.167 275,126.5C 276,125.5 277,124.5 278,123.5C 278.667,124.833 279.333,124.833 280,123.5C 280.569,127.361 281.402,127.361 282.5,123.5C 284.595,121.411 286.428,121.411 288,123.5C 288.667,122.833 289.333,122.167 290,121.5C 292.993,122.724 296.16,122.224 299.5,120C 300.768,117.046 302.268,114.879 304,113.5C 310.204,116.941 317.37,119.775 325.5,122C 323.467,126.603 324.467,127.936 328.5,126C 327.672,125.085 326.672,124.419 325.5,124C 328.464,123.16 328.797,122.16 326.5,121C 328.135,120.46 329.468,120.96 330.5,122.5C 331.541,120.009 332.374,120.009 333,122.5C 334.333,121.833 335.667,121.167 337,120.5C 337.167,120.833 337.333,121.167 337.5,121.5C 335.887,122.427 334.221,123.261 332.5,124C 336.084,125.073 339.75,125.74 343.5,126C 344.7,127.031 346.034,127.865 347.5,128.5C 348.647,128.182 349.481,127.516 350,126.5C 350.589,128.863 352.089,129.863 354.5,129.5C 354.837,134.962 357.503,136.962 362.5,135.5C 363.463,135.97 363.463,136.637 362.5,137.5 Z"/></g>
<g><path style="opacity:1" fill="#ecf3f3" d="M 269.5,147.5 C 270.129,150.397 271.129,153.064 272.5,155.5C 274.155,163.634 276.322,171.634 279,179.5C 283.711,167.985 286.545,155.985 287.5,143.5C 288.128,140.045 290.128,138.878 293.5,140C 295.509,142.854 296.842,146.021 297.5,149.5C 300.305,157.916 303.305,166.25 306.5,174.5C 307.228,176.512 308.062,178.512 309,180.5C 311.398,172.744 313.564,164.911 315.5,157C 315.43,156.235 315.097,155.735 314.5,155.5C 314.393,153.621 314.893,153.288 316,154.5C 316.838,151.148 317.671,147.815 318.5,144.5C 318.5,144.167 318.5,143.833 318.5,143.5C 318.892,141.821 319.392,140.154 320,138.5C 322.476,136.937 323.976,137.604 324.5,140.5C 324.154,141.849 323.821,143.183 323.5,144.5C 320.593,153.917 318.26,163.583 316.5,173.5C 315.434,175.701 314.767,178.035 314.5,180.5C 313.835,183.47 313.169,186.47 312.5,189.5C 309.789,190.989 307.789,190.322 306.5,187.5C 301.415,174.316 296.582,160.983 292,147.5C 291.711,152.613 290.878,157.613 289.5,162.5C 286.389,171.276 284.056,180.276 282.5,189.5C 281.081,190.451 279.415,190.784 277.5,190.5C 275.499,184.163 273.499,177.829 271.5,171.5C 270.537,166.951 269.204,162.617 267.5,158.5C 266.31,151.93 264.31,145.597 261.5,139.5C 263.236,136.895 265.069,136.895 267,139.5C 267.84,142.202 268.673,144.868 269.5,147.5 Z"/></g>
<g><path style="opacity:1" fill="#edf2f3" d="M 143.5,141.5 C 147.055,142.054 149.388,144.054 150.5,147.5C 151.185,149.414 151.685,151.414 152,153.5C 157.572,166.099 163.406,178.433 169.5,190.5C 170.954,193.4 169.954,194.733 166.5,194.5C 162.618,188.241 159.285,181.574 156.5,174.5C 152.583,165.003 148.416,155.67 144,146.5C 140.194,153.414 138.194,160.748 138,168.5C 138.903,169.701 140.069,170.535 141.5,171C 144.482,171.498 147.482,171.665 150.5,171.5C 150.714,173.144 150.38,174.644 149.5,176C 140.123,174.176 134.123,177.676 131.5,186.5C 130.833,189.167 130.167,191.833 129.5,194.5C 129.163,197.336 127.829,198.002 125.5,196.5C 125.185,191.064 126.185,185.731 128.5,180.5C 128.833,179.833 129.167,179.167 129.5,178.5C 130.401,177.71 131.068,176.71 131.5,175.5C 132.683,174.496 134.016,173.662 135.5,173C 133.408,171.147 132.408,168.814 132.5,166C 133.364,162.445 134.364,158.945 135.5,155.5C 136.709,151.411 138.209,147.411 140,143.5C 140.816,142.177 141.983,141.511 143.5,141.5 Z"/></g>
<g><path style="opacity:1" fill="#12252c" d="M 318.5,143.5 C 318.5,143.833 318.5,144.167 318.5,144.5C 317.504,144.414 316.671,144.748 316,145.5C 315.824,148.427 314.991,151.094 313.5,153.5C 310.833,153.5 308.167,153.5 305.5,153.5C 305.649,152.448 305.483,151.448 305,150.5C 304.667,150.833 304.333,151.167 304,151.5C 302.562,147.403 300.396,146.736 297.5,149.5C 296.842,146.021 295.509,142.854 293.5,140C 290.128,138.878 288.128,140.045 287.5,143.5C 286.636,144.688 285.636,145.855 284.5,147C 284.746,150.349 284.746,153.849 284.5,157.5C 282.409,157.682 280.409,157.348 278.5,156.5C 278.331,157.397 277.998,158.397 277.5,159.5C 275.512,158.711 275.179,157.545 276.5,156C 275.207,155.51 273.873,155.343 272.5,155.5C 271.129,153.064 270.129,150.397 269.5,147.5C 273.247,144.249 277.58,143.083 282.5,144C 284.376,141.491 286.543,139.325 289,137.5C 290.751,138.809 292.251,138.475 293.5,136.5C 294.696,136.846 294.696,137.346 293.5,138C 298.23,139.578 302.564,141.912 306.5,145C 308.441,145.743 310.274,145.576 312,144.5C 312.667,145.167 313.333,145.833 314,146.5C 314.589,144.137 316.089,143.137 318.5,143.5 Z"/></g>
<g><path style="opacity:1" fill="#ebf0f2" d="M 179.5,145.5 C 179.5,147.167 179.5,148.833 179.5,150.5C 179.5,155.833 179.5,161.167 179.5,166.5C 179.334,172.176 179.501,177.843 180,183.5C 180.278,184.416 180.778,185.082 181.5,185.5C 181.611,186.117 181.944,186.617 182.5,187C 186.358,187.81 190.024,187.643 193.5,186.5C 198.844,186.334 204.177,186.501 209.5,187C 210.728,188.49 210.728,189.99 209.5,191.5C 199.828,191.666 190.161,191.5 180.5,191C 179.956,190.283 179.289,189.783 178.5,189.5C 177.496,188.317 176.662,186.984 176,185.5C 175.229,178.515 174.729,171.515 174.5,164.5C 174.5,157.5 174.5,150.5 174.5,143.5C 174.722,140.924 176.055,140.09 178.5,141C 179.38,142.356 179.714,143.856 179.5,145.5 Z"/></g>
<g><path style="opacity:1" fill="#11252c" d="M 163.5,164.5 C 161.958,162.12 159.958,160.12 157.5,158.5C 158.571,156.675 157.904,155.508 155.5,155C 157.878,154.026 157.544,153.359 154.5,153C 153.385,150.869 152.052,149.035 150.5,147.5C 149.388,144.054 147.055,142.054 143.5,141.5C 144.878,140.766 146.378,140.099 148,139.5C 153.453,141.295 158.953,143.295 164.5,145.5C 165.167,145.167 165.833,144.833 166.5,144.5C 167.561,147.116 167.228,149.616 165.5,152C 167.436,153.362 168.769,155.195 169.5,157.5C 170.7,158.531 172.034,159.365 173.5,160C 169.5,160.667 169.5,161.333 173.5,162C 170.166,163.084 166.832,163.918 163.5,164.5 Z"/></g>
<g><path style="opacity:1" fill="#0e1b22" d="M 179.5,145.5 C 190.167,145.5 200.833,145.5 211.5,145.5C 211.5,151.167 211.5,156.833 211.5,162.5C 209.833,162.5 208.167,162.5 206.5,162.5C 206.657,163.873 206.49,165.207 206,166.5C 204.612,165.446 203.112,165.28 201.5,166C 199.423,166.807 197.589,167.974 196,169.5C 194.066,167.581 194.233,166.081 196.5,165C 192.5,164.333 192.5,163.667 196.5,163C 193.83,162.457 191.33,162.957 189,164.5C 188.5,164.167 188,163.833 187.5,163.5C 188.5,162.667 189.5,161.833 190.5,161C 189.167,160.333 189.167,159.667 190.5,159C 185.415,155.185 183.748,156.018 185.5,161.5C 183.801,161.473 182.467,160.806 181.5,159.5C 181.665,156.15 181.498,152.817 181,149.5C 180.617,150.056 180.117,150.389 179.5,150.5C 179.5,148.833 179.5,147.167 179.5,145.5 Z"/></g>
<g><path style="opacity:1" fill="#1e3950" d="M 135.5,155.5 C 134.364,158.945 133.364,162.445 132.5,166C 132.408,168.814 133.408,171.147 135.5,173C 134.016,173.662 132.683,174.496 131.5,175.5C 131.5,169.833 131.5,164.167 131.5,158.5C 132.236,156.771 133.57,155.771 135.5,155.5 Z"/></g>
<g><path style="opacity:1" fill="#19303a" d="M 318.5,144.5 C 317.671,147.815 316.838,151.148 316,154.5C 314.893,153.288 314.393,153.621 314.5,155.5C 314.082,156.222 313.416,156.722 312.5,157C 312.833,157.333 313.167,157.667 313.5,158C 311.242,163.528 308.909,169.028 306.5,174.5C 303.305,166.25 300.305,157.916 297.5,149.5C 300.396,146.736 302.562,147.403 304,151.5C 304.333,151.167 304.667,150.833 305,150.5C 305.483,151.448 305.649,152.448 305.5,153.5C 308.167,153.5 310.833,153.5 313.5,153.5C 314.991,151.094 315.824,148.427 316,145.5C 316.671,144.748 317.504,144.414 318.5,144.5 Z"/></g>
<g><path style="opacity:1" fill="#101d25" d="M 336.5,144.5 C 342.758,146.3 349.425,147.133 356.5,147C 351.467,147.171 346.467,147.671 341.5,148.5C 339.977,150.586 340.31,152.252 342.5,153.5C 344.432,152.48 346.432,152.313 348.5,153C 349.956,154.745 351.289,156.578 352.5,158.5C 353.086,158.291 353.586,157.957 354,157.5C 356.166,158.731 358.333,159.731 360.5,160.5C 353.137,160.831 345.803,160.497 338.5,159.5C 335.97,154.572 335.303,149.572 336.5,144.5 Z"/></g>
<g><path style="opacity:1" fill="#172e37" d="M 323.5,144.5 C 324.039,146.505 324.705,148.505 325.5,150.5C 326.004,147.658 327.671,146.325 330.5,146.5C 329.977,152.265 331.644,157.265 335.5,161.5C 334.237,163.029 333.237,164.695 332.5,166.5C 331.178,166.33 330.011,166.663 329,167.5C 327.659,170.022 326.826,172.689 326.5,175.5C 322.821,175.94 319.488,175.273 316.5,173.5C 318.26,163.583 320.593,153.917 323.5,144.5 Z"/></g>
<g><path style="opacity:1" fill="#ecf3f3" d="M 362.5,137.5 C 364.567,137.532 365.9,138.532 366.5,140.5C 366.566,142.266 365.732,143.266 364,143.5C 355.536,142.377 347.036,142.21 338.5,143C 337.584,143.278 336.918,143.778 336.5,144.5C 335.303,149.572 335.97,154.572 338.5,159.5C 345.803,160.497 353.137,160.831 360.5,160.5C 365.5,159.5 367.5,161.5 366.5,166.5C 364.435,166.483 362.435,166.15 360.5,165.5C 353.265,164.189 345.932,164.189 338.5,165.5C 337.883,165.611 337.383,165.944 337,166.5C 336.333,170.833 336.333,175.167 337,179.5C 337.833,180.333 338.667,181.167 339.5,182C 349.161,182.5 358.828,182.666 368.5,182.5C 370.62,183.403 370.954,184.737 369.5,186.5C 358.064,186.956 346.731,186.456 335.5,185C 334.107,183.829 333.273,182.329 333,180.5C 332.501,175.845 332.334,171.179 332.5,166.5C 333.237,164.695 334.237,163.029 335.5,161.5C 331.644,157.265 329.977,152.265 330.5,146.5C 331.687,141.814 334.687,138.981 339.5,138C 347.159,137.5 354.826,137.334 362.5,137.5 Z"/></g>
<g><path style="opacity:1" fill="#153d4a" d="M 287.5,143.5 C 286.545,155.985 283.711,167.985 279,179.5C 276.322,171.634 274.155,163.634 272.5,155.5C 273.873,155.343 275.207,155.51 276.5,156C 275.179,157.545 275.512,158.711 277.5,159.5C 277.998,158.397 278.331,157.397 278.5,156.5C 280.409,157.348 282.409,157.682 284.5,157.5C 284.746,153.849 284.746,150.349 284.5,147C 285.636,145.855 286.636,144.688 287.5,143.5 Z"/></g>
<g><path style="opacity:1" fill="#1a485a" d="M 156.5,174.5 C 155.25,174.577 154.417,175.244 154,176.5C 154.902,184.635 152.235,186.302 146,181.5C 143.958,181.818 141.791,181.985 139.5,182C 137.962,183.932 136.795,186.099 136,188.5C 134.989,189.337 133.822,189.67 132.5,189.5C 132.737,188.209 132.404,187.209 131.5,186.5C 134.123,177.676 140.123,174.176 149.5,176C 150.38,174.644 150.714,173.144 150.5,171.5C 147.482,171.665 144.482,171.498 141.5,171C 140.069,170.535 138.903,169.701 138,168.5C 138.194,160.748 140.194,153.414 144,146.5C 148.416,155.67 152.583,165.003 156.5,174.5 Z"/></g>
<g><path style="opacity:1" fill="#0f181c" d="M 264.5,159.5 C 264.351,168.019 264.684,176.519 265.5,185C 265.636,188.073 264.97,190.906 263.5,193.5C 260.29,193.15 259.29,191.65 260.5,189C 257.054,183.225 256.72,178.059 259.5,173.5C 258.856,168.772 257.523,164.272 255.5,160C 250.86,159.979 246.194,160.146 241.5,160.5C 238.5,160.167 235.5,159.833 232.5,159.5C 230.724,157.553 228.724,157.22 226.5,158.5C 229.429,160.19 231.096,162.357 231.5,165C 235.641,165.31 237.975,167.477 238.5,171.5C 241.523,171.105 242.523,172.105 241.5,174.5C 243.053,175.439 244.387,176.606 245.5,178C 243.22,179.336 241.887,181.836 241.5,185.5C 238.15,185.665 234.817,185.498 231.5,185C 232.956,184.577 233.456,183.744 233,182.5C 231.026,182.647 229.026,182.981 227,183.5C 227.227,181.426 227.061,179.426 226.5,177.5C 227.025,176.808 227.692,176.308 228.5,176C 226.5,174.333 224.5,172.667 222.5,171C 225.5,170.667 227.167,169 227.5,166C 225.545,163.667 223.378,161.5 221,159.5C 219.293,157.091 218.46,154.425 218.5,151.5C 219.815,150.524 221.148,149.524 222.5,148.5C 223.908,150.507 225.408,152.507 227,154.5C 227.667,153.833 228.333,153.167 229,152.5C 230.667,154.5 232.333,156.5 234,158.5C 234.388,157.572 235.055,156.905 236,156.5C 238.854,155.886 241.687,155.219 244.5,154.5C 246.764,155.038 249.097,154.704 251.5,153.5C 255.147,154.648 258.814,154.648 262.5,153.5C 262.107,156.84 261.273,159.84 260,162.5C 260.333,162.833 260.667,163.167 261,163.5C 261.057,161.09 262.224,159.756 264.5,159.5 Z"/></g>
<g><path style="opacity:1" fill="#14252f" d="M 211.5,142.5 C 212.057,157.071 213.057,171.738 214.5,186.5C 214.84,189.675 216.507,191.841 219.5,193C 218.099,193.41 216.766,193.91 215.5,194.5C 214.393,192.031 212.393,191.031 209.5,191.5C 210.728,189.99 210.728,188.49 209.5,187C 204.177,186.501 198.844,186.334 193.5,186.5C 191.5,186.5 189.5,186.5 187.5,186.5C 187.666,179.492 187.5,172.492 187,165.5C 185.301,164.594 183.467,164.261 181.5,164.5C 181.5,162.833 181.5,161.167 181.5,159.5C 182.467,160.806 183.801,161.473 185.5,161.5C 183.748,156.018 185.415,155.185 190.5,159C 189.167,159.667 189.167,160.333 190.5,161C 189.5,161.833 188.5,162.667 187.5,163.5C 188,163.833 188.5,164.167 189,164.5C 191.33,162.957 193.83,162.457 196.5,163C 192.5,163.667 192.5,164.333 196.5,165C 194.233,166.081 194.066,167.581 196,169.5C 197.589,167.974 199.423,166.807 201.5,166C 203.112,165.28 204.612,165.446 206,166.5C 206.49,165.207 206.657,163.873 206.5,162.5C 208.167,162.5 209.833,162.5 211.5,162.5C 211.5,156.833 211.5,151.167 211.5,145.5C 211.5,144.5 211.5,143.5 211.5,142.5 Z"/></g>
<g><path style="opacity:1" fill="#14252d" d="M 338.5,165.5 C 342.418,166.311 346.418,167.311 350.5,168.5C 349.332,169.906 349.665,171.072 351.5,172C 349.368,172.918 348.701,174.251 349.5,176C 348.139,177.584 347.472,179.418 347.5,181.5C 351.167,181.5 354.833,181.5 358.5,181.5C 362.042,181.187 365.375,181.521 368.5,182.5C 358.828,182.666 349.161,182.5 339.5,182C 338.667,181.167 337.833,180.333 337,179.5C 336.333,175.167 336.333,170.833 337,166.5C 337.383,165.944 337.883,165.611 338.5,165.5 Z"/></g>
<g><path style="opacity:1" fill="#19495f" d="M 314.5,155.5 C 315.097,155.735 315.43,156.235 315.5,157C 313.564,164.911 311.398,172.744 309,180.5C 308.062,178.512 307.228,176.512 306.5,174.5C 308.909,169.028 311.242,163.528 313.5,158C 313.167,157.667 312.833,157.333 312.5,157C 313.416,156.722 314.082,156.222 314.5,155.5 Z"/></g>
<g><path style="opacity:1" fill="#0f9abb" d="M 131.5,158.5 C 131.5,164.167 131.5,169.833 131.5,175.5C 131.068,176.71 130.401,177.71 129.5,178.5C 128.347,172.681 128.181,166.681 129,160.5C 129.417,159.244 130.25,158.577 131.5,158.5 Z"/></g>
<g><path style="opacity:1" fill="#1a5174" d="M 181.5,185.5 C 180.778,185.082 180.278,184.416 180,183.5C 179.501,177.843 179.334,172.176 179.5,166.5C 180.117,166.389 180.617,166.056 181,165.5C 181.5,172.158 181.666,178.825 181.5,185.5 Z"/></g>
<g><path style="opacity:1" fill="#1a5062" d="M 131.5,158.5 C 130.25,158.577 129.417,159.244 129,160.5C 128.181,166.681 128.347,172.681 129.5,178.5C 129.167,179.167 128.833,179.833 128.5,180.5C 127.833,180.5 127.167,180.5 126.5,180.5C 127.358,172.868 127.691,165.201 127.5,157.5C 129.099,157.232 130.432,157.566 131.5,158.5 Z"/></g>
<g><path style="opacity:1" fill="#1b3846" d="M 150.5,147.5 C 152.052,149.035 153.385,150.869 154.5,153C 157.544,153.359 157.878,154.026 155.5,155C 157.904,155.508 158.571,156.675 157.5,158.5C 159.958,160.12 161.958,162.12 163.5,164.5C 166.181,164.462 168.681,165.129 171,166.5C 172.303,166.022 173.469,165.355 174.5,164.5C 174.729,171.515 175.229,178.515 176,185.5C 176.662,186.984 177.496,188.317 178.5,189.5C 175.287,189.19 172.287,189.523 169.5,190.5C 163.406,178.433 157.572,166.099 152,153.5C 151.685,151.414 151.185,149.414 150.5,147.5 Z"/></g>
<g><path style="opacity:1" fill="#1c6883" d="M 267.5,158.5 C 269.204,162.617 270.537,166.951 271.5,171.5C 270.883,171.389 270.383,171.056 270,170.5C 269.427,174.848 268.76,179.181 268,183.5C 266.91,175.52 266.076,167.52 265.5,159.5C 266.492,159.672 267.158,159.338 267.5,158.5 Z"/></g>
<g><path style="opacity:1" fill="#1d2f3a" d="M 216.5,140.5 C 217.402,143.997 218.069,147.663 218.5,151.5C 218.46,154.425 219.293,157.091 221,159.5C 223.378,161.5 225.545,163.667 227.5,166C 227.167,169 225.5,170.667 222.5,171C 224.5,172.667 226.5,174.333 228.5,176C 227.692,176.308 227.025,176.808 226.5,177.5C 227.061,179.426 227.227,181.426 227,183.5C 229.026,182.981 231.026,182.647 233,182.5C 233.456,183.744 232.956,184.577 231.5,185C 234.817,185.498 238.15,185.665 241.5,185.5C 242.492,185.328 243.158,185.662 243.5,186.5C 236.825,186.666 230.158,186.5 223.5,186C 221.671,185.727 220.171,184.893 219,183.5C 217.141,169.281 216.308,154.947 216.5,140.5 Z"/></g>
<g><path style="opacity:1" fill="#193746" d="M 181.5,159.5 C 181.5,161.167 181.5,162.833 181.5,164.5C 183.467,164.261 185.301,164.594 187,165.5C 187.5,172.492 187.666,179.492 187.5,186.5C 189.5,186.5 191.5,186.5 193.5,186.5C 190.024,187.643 186.358,187.81 182.5,187C 181.944,186.617 181.611,186.117 181.5,185.5C 181.666,178.825 181.5,172.158 181,165.5C 180.617,166.056 180.117,166.389 179.5,166.5C 179.5,161.167 179.5,155.833 179.5,150.5C 180.117,150.389 180.617,150.056 181,149.5C 181.498,152.817 181.665,156.15 181.5,159.5 Z"/></g>
<g><path style="opacity:1" fill="#173641" d="M 289.5,162.5 C 290.675,162.281 291.675,162.614 292.5,163.5C 293.897,165.982 294.731,168.648 295,171.5C 298.54,176.518 301.374,181.852 303.5,187.5C 296.219,186.929 289.219,187.595 282.5,189.5C 284.056,180.276 286.389,171.276 289.5,162.5 Z"/></g>
<g><path style="opacity:1" fill="#111b20" d="M 360.5,165.5 C 357.482,165.335 354.482,165.502 351.5,166C 352.833,166.333 354.167,166.667 355.5,167C 356.264,169.278 357.43,171.778 359,174.5C 360.062,176.208 361.229,176.874 362.5,176.5C 360.739,177.917 359.406,179.583 358.5,181.5C 354.833,181.5 351.167,181.5 347.5,181.5C 347.472,179.418 348.139,177.584 349.5,176C 348.701,174.251 349.368,172.918 351.5,172C 349.665,171.072 349.332,169.906 350.5,168.5C 346.418,167.311 342.418,166.311 338.5,165.5C 345.932,164.189 353.265,164.189 360.5,165.5 Z"/></g>
<g><path style="opacity:1" fill="#1a3a45" d="M 332.5,166.5 C 332.334,171.179 332.501,175.845 333,180.5C 333.273,182.329 334.107,183.829 335.5,185C 346.731,186.456 358.064,186.956 369.5,186.5C 363.594,186.854 357.927,187.854 352.5,189.5C 342.478,189.27 332.478,189.603 322.5,190.5C 320.667,190.415 319.334,189.748 318.5,188.5C 318.5,187.167 318.5,185.833 318.5,184.5C 321.572,184.817 324.572,184.484 327.5,183.5C 327.217,179.384 325.05,177.717 321,178.5C 318.659,178.83 316.492,179.496 314.5,180.5C 314.767,178.035 315.434,175.701 316.5,173.5C 319.488,175.273 322.821,175.94 326.5,175.5C 326.826,172.689 327.659,170.022 329,167.5C 330.011,166.663 331.178,166.33 332.5,166.5 Z"/></g>
<g><path style="opacity:1" fill="#1a4d5e" d="M 306.5,187.5 C 305.5,187.5 304.5,187.5 303.5,187.5C 301.374,181.852 298.54,176.518 295,171.5C 294.731,168.648 293.897,165.982 292.5,163.5C 291.675,162.614 290.675,162.281 289.5,162.5C 290.878,157.613 291.711,152.613 292,147.5C 296.582,160.983 301.415,174.316 306.5,187.5 Z"/></g>
<g><path style="opacity:1" fill="#ebf1f2" d="M 214.5,137.5 C 215.906,137.973 216.573,138.973 216.5,140.5C 216.308,154.947 217.141,169.281 219,183.5C 220.171,184.893 221.671,185.727 223.5,186C 230.158,186.5 236.825,186.666 243.5,186.5C 245.71,187.455 246.043,188.955 244.5,191C 240.195,190.923 235.862,190.756 231.5,190.5C 227.486,190.666 223.486,190.499 219.5,190C 217.677,189.003 216.01,187.836 214.5,186.5C 213.057,171.738 212.057,157.071 211.5,142.5C 210.179,139.765 211.179,138.098 214.5,137.5 Z"/></g>
<g><path style="opacity:1" fill="#13252a" d="M 264.5,159.5 C 264.833,159.5 265.167,159.5 265.5,159.5C 266.076,167.52 266.91,175.52 268,183.5C 268.76,179.181 269.427,174.848 270,170.5C 270.383,171.056 270.883,171.389 271.5,171.5C 273.499,177.829 275.499,184.163 277.5,190.5C 279.415,190.784 281.081,190.451 282.5,189.5C 289.219,187.595 296.219,186.929 303.5,187.5C 304.5,187.5 305.5,187.5 306.5,187.5C 307.789,190.322 309.789,190.989 312.5,189.5C 313.169,186.47 313.835,183.47 314.5,180.5C 316.492,179.496 318.659,178.83 321,178.5C 325.05,177.717 327.217,179.384 327.5,183.5C 324.572,184.484 321.572,184.817 318.5,184.5C 318.5,185.833 318.5,187.167 318.5,188.5C 317.624,188.369 316.957,188.702 316.5,189.5C 317.098,190.795 317.598,192.128 318,193.5C 320.621,194.008 323.121,194.674 325.5,195.5C 319.616,197.653 314.782,196.32 311,191.5C 306.631,192.97 302.131,193.97 297.5,194.5C 296.548,196.045 296.215,197.712 296.5,199.5C 295.167,199.5 293.833,199.5 292.5,199.5C 291.287,196.447 289.12,194.113 286,192.5C 285.261,193.574 284.261,194.241 283,194.5C 280.547,193.507 278.047,193.34 275.5,194C 277.007,194.837 277.507,196.004 277,197.5C 276.667,197.167 276.333,196.833 276,196.5C 272.999,197.754 270.165,199.087 267.5,200.5C 267.261,198.533 267.594,196.699 268.5,195C 267.683,192.628 266.35,192.128 264.5,193.5C 264.167,193.5 263.833,193.5 263.5,193.5C 264.97,190.906 265.636,188.073 265.5,185C 264.684,176.519 264.351,168.019 264.5,159.5 Z"/></g>
<g><path style="opacity:1" fill="#0b0f10" d="M 263.5,193.5 C 263.833,193.5 264.167,193.5 264.5,193.5C 262.29,197.223 259.456,200.556 256,203.5C 255.209,204.745 254.709,206.078 254.5,207.5C 252.755,209.033 251.755,211.033 251.5,213.5C 249.766,210.847 247.766,208.347 245.5,206C 249.156,202.837 253.156,200.171 257.5,198C 252.22,198.467 247.386,200.3 243,203.5C 241.836,201.351 240.67,199.185 239.5,197C 236.633,196.199 233.966,196.366 231.5,197.5C 229.801,197.473 228.467,196.806 227.5,195.5C 227.67,194.178 227.337,193.011 226.5,192C 228.382,191.802 230.048,191.302 231.5,190.5C 235.862,190.756 240.195,190.923 244.5,191C 246.043,188.955 245.71,187.455 243.5,186.5C 243.158,185.662 242.492,185.328 241.5,185.5C 241.887,181.836 243.22,179.336 245.5,178C 244.387,176.606 243.053,175.439 241.5,174.5C 242.523,172.105 241.523,171.105 238.5,171.5C 237.975,167.477 235.641,165.31 231.5,165C 231.096,162.357 229.429,160.19 226.5,158.5C 228.724,157.22 230.724,157.553 232.5,159.5C 235.5,159.833 238.5,160.167 241.5,160.5C 246.194,160.146 250.86,159.979 255.5,160C 257.523,164.272 258.856,168.772 259.5,173.5C 256.72,178.059 257.054,183.225 260.5,189C 259.29,191.65 260.29,193.15 263.5,193.5 Z"/></g>
<g><path style="opacity:1" fill="#15333d" d="M 156.5,174.5 C 159.285,181.574 162.618,188.241 166.5,194.5C 166.44,195.043 166.107,195.376 165.5,195.5C 163.571,194.62 161.737,193.62 160,192.5C 157.285,193.738 154.618,193.738 152,192.5C 150.176,193.749 150.343,194.915 152.5,196C 150.661,197.132 148.661,197.965 146.5,198.5C 145.692,196.577 145.192,194.577 145,192.5C 142.135,190.529 139.135,189.863 136,190.5C 135.209,191.745 134.709,193.078 134.5,194.5C 134.539,195.756 134.039,196.756 133,197.5C 132.241,195.937 131.074,194.937 129.5,194.5C 130.167,191.833 130.833,189.167 131.5,186.5C 132.404,187.209 132.737,188.209 132.5,189.5C 133.822,189.67 134.989,189.337 136,188.5C 136.795,186.099 137.962,183.932 139.5,182C 141.791,181.985 143.958,181.818 146,181.5C 152.235,186.302 154.902,184.635 154,176.5C 154.417,175.244 155.25,174.577 156.5,174.5 Z"/></g>
<g><path style="opacity:1" fill="#070a0d" d="M 337.5,264.5 C 337.5,263.167 337.5,261.833 337.5,260.5C 336.167,260.5 334.833,260.5 333.5,260.5C 330.767,259.451 328.767,257.618 327.5,255C 328.624,254.751 329.624,254.251 330.5,253.5C 328.469,251.751 328.135,249.751 329.5,247.5C 326.894,246.076 326.894,244.743 329.5,243.5C 331.467,243.739 333.301,243.406 335,242.5C 335.844,240.537 335.344,239.204 333.5,238.5C 330.695,237.681 327.695,237.181 324.5,237C 325.448,236.517 326.448,236.351 327.5,236.5C 327.586,234.323 328.253,232.323 329.5,230.5C 328.666,225.965 325.999,223.465 321.5,223C 325.736,222.665 329.736,221.832 333.5,220.5C 335.273,219.686 335.773,218.352 335,216.5C 333.989,215.663 332.822,215.33 331.5,215.5C 331.064,213.254 330.397,211.087 329.5,209C 330.759,208.077 332.092,207.243 333.5,206.5C 332.469,205.3 331.635,203.966 331,202.5C 330.667,203.167 330.333,203.833 330,204.5C 328.926,203.382 327.76,202.382 326.5,201.5C 327.711,200.28 327.711,199.113 326.5,198C 328.823,196.796 331.323,195.962 334,195.5C 339.5,197.997 342,196.33 341.5,190.5C 342.5,190.5 343.5,190.5 344.5,190.5C 343.643,191.802 343.143,193.135 343,194.5C 344.975,194.488 347.142,194.822 349.5,195.5C 349.351,194.448 349.517,193.448 350,192.5C 351.167,194.167 352.333,195.833 353.5,197.5C 354.711,196.726 354.711,195.893 353.5,195C 354.357,194.311 355.023,193.478 355.5,192.5C 354.355,191.109 354.355,189.776 355.5,188.5C 357.506,188.132 359.506,188.632 361.5,190C 360.5,190.333 359.5,190.667 358.5,191C 359.687,192.019 360.687,193.186 361.5,194.5C 360.975,195.192 360.308,195.692 359.5,196C 360.931,196.465 362.097,197.299 363,198.5C 363.333,198.167 363.667,197.833 364,197.5C 364.462,201.178 364.629,204.845 364.5,208.5C 362.801,208.34 361.134,208.506 359.5,209C 360.167,209.333 360.833,209.667 361.5,210C 357.516,212.098 357.849,213.765 362.5,215C 357.377,215.488 354.544,218.322 354,223.5C 354.325,228.157 354.992,232.824 356,237.5C 356.654,236.304 357.154,236.304 357.5,237.5C 356.897,238.635 356.564,239.635 356.5,240.5C 353.346,239.865 350.013,238.865 346.5,237.5C 345.491,235.815 345.991,234.482 348,233.5C 348.772,233.645 349.439,233.978 350,234.5C 349.404,227.279 349.571,220.112 350.5,213C 349.695,211.028 348.361,209.528 346.5,208.5C 348.198,203.947 347.198,203.281 343.5,206.5C 345.512,212.232 344.179,217.065 339.5,221C 340.759,221.923 342.092,222.757 343.5,223.5C 345.329,229.442 344.329,235.108 340.5,240.5C 343.081,244.249 346.414,247.083 350.5,249C 349.328,249.419 348.328,250.085 347.5,251C 349.585,252.041 351.252,253.541 352.5,255.5C 351.224,256.645 349.891,256.645 348.5,255.5C 348.167,256 347.833,256.5 347.5,257C 348.509,258.168 349.509,259.335 350.5,260.5C 346.453,261.004 342.453,261.337 338.5,261.5C 338.737,262.791 338.404,263.791 337.5,264.5 Z"/></g>
<g><path style="opacity:1" fill="#153948" d="M 214.5,186.5 C 216.01,187.836 217.677,189.003 219.5,190C 223.486,190.499 227.486,190.666 231.5,190.5C 230.048,191.302 228.382,191.802 226.5,192C 227.337,193.011 227.67,194.178 227.5,195.5C 227.279,198.097 226.779,198.097 226,195.5C 216.882,197.603 207.549,199.27 198,200.5C 196.833,200.333 195.667,200.167 194.5,200C 195.416,199.722 196.082,199.222 196.5,198.5C 203.125,198.442 209.459,197.108 215.5,194.5C 216.766,193.91 218.099,193.41 219.5,193C 216.507,191.841 214.84,189.675 214.5,186.5 Z"/></g>
<g><path style="opacity:1" fill="#0b1417" d="M 318.5,188.5 C 319.334,189.748 320.667,190.415 322.5,190.5C 332.478,189.603 342.478,189.27 352.5,189.5C 350.052,190.473 347.385,190.806 344.5,190.5C 343.5,190.5 342.5,190.5 341.5,190.5C 342,196.33 339.5,197.997 334,195.5C 331.323,195.962 328.823,196.796 326.5,198C 327.711,199.113 327.711,200.28 326.5,201.5C 327.76,202.382 328.926,203.382 330,204.5C 330.333,203.833 330.667,203.167 331,202.5C 331.635,203.966 332.469,205.3 333.5,206.5C 332.092,207.243 330.759,208.077 329.5,209C 330.397,211.087 331.064,213.254 331.5,215.5C 322.523,216.409 313.523,217.242 304.5,218C 303.016,218.662 301.683,219.496 300.5,220.5C 296.821,220.06 293.488,220.727 290.5,222.5C 290.662,220.473 290.495,218.473 290,216.5C 286.5,215.84 285,217.507 285.5,221.5C 283.7,220.395 282.533,221.061 282,223.5C 281.667,223.167 281.333,222.833 281,222.5C 280.503,224.81 280.337,227.143 280.5,229.5C 279.778,229.918 279.278,230.584 279,231.5C 277.933,226.308 277.1,221.308 276.5,216.5C 273.221,218.251 269.721,218.251 266,216.5C 262.288,216.582 258.622,216.582 255,216.5C 253.593,213.499 253.426,210.499 254.5,207.5C 254.709,206.078 255.209,204.745 256,203.5C 259.456,200.556 262.29,197.223 264.5,193.5C 266.35,192.128 267.683,192.628 268.5,195C 267.594,196.699 267.261,198.533 267.5,200.5C 270.165,199.087 272.999,197.754 276,196.5C 276.333,196.833 276.667,197.167 277,197.5C 277.507,196.004 277.007,194.837 275.5,194C 278.047,193.34 280.547,193.507 283,194.5C 284.261,194.241 285.261,193.574 286,192.5C 289.12,194.113 291.287,196.447 292.5,199.5C 293.833,199.5 295.167,199.5 296.5,199.5C 296.215,197.712 296.548,196.045 297.5,194.5C 302.131,193.97 306.631,192.97 311,191.5C 314.782,196.32 319.616,197.653 325.5,195.5C 323.121,194.674 320.621,194.008 318,193.5C 317.598,192.128 317.098,190.795 316.5,189.5C 316.957,188.702 317.624,188.369 318.5,188.5 Z"/></g>
<g><path style="opacity:1" fill="#0d161a" d="M 231.5,197.5 C 233.966,196.366 236.633,196.199 239.5,197C 240.67,199.185 241.836,201.351 243,203.5C 247.386,200.3 252.22,198.467 257.5,198C 253.156,200.171 249.156,202.837 245.5,206C 247.766,208.347 249.766,210.847 251.5,213.5C 250.89,214.391 250.557,215.391 250.5,216.5C 250.167,216.5 249.833,216.5 249.5,216.5C 247.566,213.884 245.399,210.884 243,207.5C 242.085,208.328 241.419,209.328 241,210.5C 240.333,221.167 239.667,221.167 239,210.5C 238.632,211.91 237.799,212.91 236.5,213.5C 230.869,209.659 225.369,209.659 220,213.5C 219.86,216.043 219.194,218.377 218,220.5C 218.046,218.687 217.88,217.021 217.5,215.5C 216.667,216.5 215.833,217.5 215,218.5C 215.198,221.235 215.031,223.901 214.5,226.5C 214.065,222.388 213.065,218.555 211.5,215C 212.167,214.667 212.833,214.333 213.5,214C 212.424,212.274 212.257,210.441 213,208.5C 213.956,209.579 214.789,210.745 215.5,212C 216.167,212.667 216.833,212.667 217.5,212C 216.842,209.153 216.175,205.986 215.5,202.5C 216.873,202.657 218.207,202.49 219.5,202C 219.167,201.667 218.833,201.333 218.5,201C 221.089,199.686 223.756,199.019 226.5,199C 225.833,199.333 225.167,199.667 224.5,200C 228.167,200.667 231.833,200.667 235.5,200C 234.307,198.905 232.973,198.072 231.5,197.5 Z"/></g>
<g><path style="opacity:1" fill="#0e171c" d="M 166.5,194.5 C 169.954,194.733 170.954,193.4 169.5,190.5C 172.287,189.523 175.287,189.19 178.5,189.5C 179.289,189.783 179.956,190.283 180.5,191C 190.161,191.5 199.828,191.666 209.5,191.5C 212.393,191.031 214.393,192.031 215.5,194.5C 209.459,197.108 203.125,198.442 196.5,198.5C 194.473,198.662 192.473,198.495 190.5,198C 189.027,197.29 188.36,196.124 188.5,194.5C 187.5,194.5 186.5,194.5 185.5,194.5C 185.428,197.522 186.762,199.688 189.5,201C 187.833,201.333 186.167,201.667 184.5,202C 187.833,202.333 191.167,202.667 194.5,203C 191.833,203.333 189.167,203.667 186.5,204C 189.5,204.333 192.5,204.667 195.5,205C 196.126,205.75 196.626,206.584 197,207.5C 200.139,206.921 203.139,205.921 206,204.5C 209.432,207.034 209.265,207.701 205.5,206.5C 202.833,207.5 202.833,208.5 205.5,209.5C 205.291,210.086 204.957,210.586 204.5,211C 205.833,212 207.167,213 208.5,214C 206.595,215.87 204.428,217.37 202,218.5C 201.51,219.793 201.343,221.127 201.5,222.5C 200.833,227.5 200.167,232.5 199.5,237.5C 199.666,230.825 199.5,224.158 199,217.5C 197.887,216.289 196.72,216.289 195.5,217.5C 194.669,224.811 194.169,232.144 194,239.5C 193.617,238.944 193.117,238.611 192.5,238.5C 191.624,238.631 190.957,238.298 190.5,237.5C 191.325,236.614 192.325,236.281 193.5,236.5C 193.665,232.818 193.499,229.152 193,225.5C 192.667,225.833 192.333,226.167 192,226.5C 190.867,224.789 189.367,224.289 187.5,225C 185.564,227.603 183.064,229.436 180,230.5C 178.798,228.323 178.298,225.989 178.5,223.5C 177.167,223.5 175.833,223.5 174.5,223.5C 174.5,229.167 174.5,234.833 174.5,240.5C 173.391,240.557 172.391,240.89 171.5,241.5C 170.939,240.092 170.605,238.592 170.5,237C 172.286,230.929 173.62,224.762 174.5,218.5C 174.167,217.833 173.833,217.167 173.5,216.5C 175.923,213.654 178.257,210.82 180.5,208C 178.888,207.28 177.388,207.446 176,208.5C 175.481,207.484 174.647,206.818 173.5,206.5C 168.849,207.325 164.516,208.991 160.5,211.5C 160.167,211.333 159.833,211.167 159.5,211C 160.328,210.085 161.328,209.419 162.5,209C 160.203,207.84 160.536,206.84 163.5,206C 161.975,204.991 160.308,204.491 158.5,204.5C 158.5,203.167 158.5,201.833 158.5,200.5C 162.122,200.763 165.289,202.096 168,204.5C 169.225,204.138 170.391,203.638 171.5,203C 164.038,199.117 156.038,197.951 147.5,199.5C 147.753,201.827 147.086,203.827 145.5,205.5C 144.914,205.291 144.414,204.957 144,204.5C 143.922,202.343 143.755,200.343 143.5,198.5C 140.48,197.162 137.48,195.829 134.5,194.5C 134.709,193.078 135.209,191.745 136,190.5C 139.135,189.863 142.135,190.529 145,192.5C 145.192,194.577 145.692,196.577 146.5,198.5C 148.661,197.965 150.661,197.132 152.5,196C 150.343,194.915 150.176,193.749 152,192.5C 154.618,193.738 157.285,193.738 160,192.5C 161.737,193.62 163.571,194.62 165.5,195.5C 166.107,195.376 166.44,195.043 166.5,194.5 Z"/></g>
<g><path style="opacity:1" fill="#080e12" d="M 129.5,194.5 C 131.074,194.937 132.241,195.937 133,197.5C 134.039,196.756 134.539,195.756 134.5,194.5C 137.48,195.829 140.48,197.162 143.5,198.5C 143.755,200.343 143.922,202.343 144,204.5C 144.414,204.957 144.914,205.291 145.5,205.5C 147.086,203.827 147.753,201.827 147.5,199.5C 156.038,197.951 164.038,199.117 171.5,203C 170.391,203.638 169.225,204.138 168,204.5C 165.289,202.096 162.122,200.763 158.5,200.5C 158.5,201.833 158.5,203.167 158.5,204.5C 160.308,204.491 161.975,204.991 163.5,206C 160.536,206.84 160.203,207.84 162.5,209C 161.328,209.419 160.328,210.085 159.5,211C 159.833,211.167 160.167,211.333 160.5,211.5C 164.516,208.991 168.849,207.325 173.5,206.5C 174.647,206.818 175.481,207.484 176,208.5C 177.388,207.446 178.888,207.28 180.5,208C 178.257,210.82 175.923,213.654 173.5,216.5C 173.833,217.167 174.167,217.833 174.5,218.5C 173.62,224.762 172.286,230.929 170.5,237C 170.605,238.592 170.939,240.092 171.5,241.5C 170.178,241.33 169.011,241.663 168,242.5C 167.667,234.5 167.333,226.5 167,218.5C 165.951,217.483 164.784,217.316 163.5,218C 162.514,228.084 162.181,238.251 162.5,248.5C 157.551,240.578 154.218,231.912 152.5,222.5C 155.205,215.226 154.705,214.893 151,221.5C 150.471,226.854 150.638,232.187 151.5,237.5C 150.732,236.737 150.232,235.737 150,234.5C 149.902,236.619 149.069,238.286 147.5,239.5C 146.786,236.973 146.12,234.473 145.5,232C 146.03,229.864 145.197,228.03 143,226.5C 141.538,224.012 140.538,221.345 140,218.5C 139.667,218.833 139.333,219.167 139,219.5C 138.209,217.396 136.709,216.063 134.5,215.5C 133.754,214.264 133.421,212.93 133.5,211.5C 132.448,211.649 131.448,211.483 130.5,211C 130.833,210.667 131.167,210.333 131.5,210C 129.719,207.763 127.719,205.763 125.5,204C 127.5,203.333 129.5,202.667 131.5,202C 130.022,199.961 128.022,199.128 125.5,199.5C 125.5,198.5 125.5,197.5 125.5,196.5C 127.829,198.002 129.163,197.336 129.5,194.5 Z"/></g>
<g><path style="opacity:1" fill="#132127" d="M 196.5,198.5 C 196.082,199.222 195.416,199.722 194.5,200C 195.667,200.167 196.833,200.333 198,200.5C 207.549,199.27 216.882,197.603 226,195.5C 226.779,198.097 227.279,198.097 227.5,195.5C 228.467,196.806 229.801,197.473 231.5,197.5C 232.973,198.072 234.307,198.905 235.5,200C 231.833,200.667 228.167,200.667 224.5,200C 225.167,199.667 225.833,199.333 226.5,199C 223.756,199.019 221.089,199.686 218.5,201C 218.833,201.333 219.167,201.667 219.5,202C 218.207,202.49 216.873,202.657 215.5,202.5C 216.175,205.986 216.842,209.153 217.5,212C 216.833,212.667 216.167,212.667 215.5,212C 214.789,210.745 213.956,209.579 213,208.5C 212.257,210.441 212.424,212.274 213.5,214C 212.833,214.333 212.167,214.667 211.5,215C 213.065,218.555 214.065,222.388 214.5,226.5C 215.031,223.901 215.198,221.235 215,218.5C 215.833,217.5 216.667,216.5 217.5,215.5C 217.88,217.021 218.046,218.687 218,220.5C 219.194,218.377 219.86,216.043 220,213.5C 225.369,209.659 230.869,209.659 236.5,213.5C 237.799,212.91 238.632,211.91 239,210.5C 239.667,221.167 240.333,221.167 241,210.5C 241.419,209.328 242.085,208.328 243,207.5C 245.399,210.884 247.566,213.884 249.5,216.5C 248.89,217.391 248.557,218.391 248.5,219.5C 248.833,224.167 249.167,228.833 249.5,233.5C 247.452,228.893 245.285,224.227 243,219.5C 242.667,221.167 242.333,222.833 242,224.5C 241.517,223.552 241.351,222.552 241.5,221.5C 239.891,221.094 238.557,221.094 237.5,221.5C 242.073,230.593 244.407,240.26 244.5,250.5C 242.692,249.093 240.692,247.926 238.5,247C 240.973,243.654 241.14,240.154 239,236.5C 235.197,230.561 232.197,224.227 230,217.5C 228.644,216.62 227.144,216.286 225.5,216.5C 224.508,219.823 223.508,223.156 222.5,226.5C 221.883,226.389 221.383,226.056 221,225.5C 219.693,226.772 218.193,227.772 216.5,228.5C 215.233,230.371 215.233,232.204 216.5,234C 214.393,235.264 213.393,237.097 213.5,239.5C 212.448,239.649 211.448,239.483 210.5,239C 211.956,238.577 212.456,237.744 212,236.5C 211.107,237.711 210.274,237.711 209.5,236.5C 210.689,235.571 212.022,235.238 213.5,235.5C 214.154,231.414 212.988,228.081 210,225.5C 208.108,226.13 206.441,227.13 205,228.5C 204.505,226.527 204.338,224.527 204.5,222.5C 203.5,222.5 202.5,222.5 201.5,222.5C 201.343,221.127 201.51,219.793 202,218.5C 204.428,217.37 206.595,215.87 208.5,214C 207.167,213 205.833,212 204.5,211C 204.957,210.586 205.291,210.086 205.5,209.5C 202.833,208.5 202.833,207.5 205.5,206.5C 209.265,207.701 209.432,207.034 206,204.5C 203.139,205.921 200.139,206.921 197,207.5C 196.626,206.584 196.126,205.75 195.5,205C 192.5,204.667 189.5,204.333 186.5,204C 189.167,203.667 191.833,203.333 194.5,203C 191.167,202.667 187.833,202.333 184.5,202C 186.167,201.667 187.833,201.333 189.5,201C 186.762,199.688 185.428,197.522 185.5,194.5C 186.5,194.5 187.5,194.5 188.5,194.5C 188.36,196.124 189.027,197.29 190.5,198C 192.473,198.495 194.473,198.662 196.5,198.5 Z"/></g>
<g><path style="opacity:1" fill="#e8ecee" d="M 331.5,215.5 C 332.822,215.33 333.989,215.663 335,216.5C 335.773,218.352 335.273,219.686 333.5,220.5C 324.497,220.875 315.497,221.375 306.5,222C 304.115,223.463 303.115,225.629 303.5,228.5C 304.016,232.563 304.849,236.563 306,240.5C 306.75,239.874 307.584,239.374 308.5,239C 316.827,238.5 325.16,238.334 333.5,238.5C 335.344,239.204 335.844,240.537 335,242.5C 333.301,243.406 331.467,243.739 329.5,243.5C 326.351,242.835 323.018,242.502 319.5,242.5C 306.087,240.763 301.587,246.43 306,259.5C 306.5,260 307,260.5 307.5,261C 316.343,261.824 325.01,261.657 333.5,260.5C 334.833,260.5 336.167,260.5 337.5,260.5C 337.5,261.833 337.5,263.167 337.5,264.5C 337.389,265.117 337.056,265.617 336.5,266C 330.843,266.499 325.176,266.666 319.5,266.5C 315.154,266.666 310.821,266.499 306.5,266C 304.34,265.004 302.673,263.504 301.5,261.5C 301.5,261.167 301.5,260.833 301.5,260.5C 299.932,254.028 300.265,247.695 302.5,241.5C 298.287,234.801 297.62,227.801 300.5,220.5C 301.683,219.496 303.016,218.662 304.5,218C 313.523,217.242 322.523,216.409 331.5,215.5 Z"/></g>
<g><path style="opacity:1" fill="#eef2f3" d="M 244.5,250.5 C 244.328,251.492 244.662,252.158 245.5,252.5C 247.45,257.347 249.784,262.014 252.5,266.5C 250.462,269.152 248.462,269.152 246.5,266.5C 244.581,261.495 242.248,256.661 239.5,252C 233.917,251.809 228.417,251.309 223,250.5C 222.316,249.216 222.483,248.049 223.5,247C 227.821,246.501 232.154,246.334 236.5,246.5C 234.536,239.433 231.702,232.767 228,226.5C 223.197,238.412 218.697,250.412 214.5,262.5C 214.029,264.579 213.363,266.579 212.5,268.5C 211.5,269.833 210.5,269.833 209.5,268.5C 209.337,266.143 209.503,263.81 210,261.5C 214.469,249.924 218.636,238.257 222.5,226.5C 223.508,223.156 224.508,219.823 225.5,216.5C 227.144,216.286 228.644,216.62 230,217.5C 232.197,224.227 235.197,230.561 239,236.5C 241.14,240.154 240.973,243.654 238.5,247C 240.692,247.926 242.692,249.093 244.5,250.5 Z"/></g>
<g><path style="opacity:1" fill="#14242d" d="M 333.5,220.5 C 329.736,221.832 325.736,222.665 321.5,223C 325.999,223.465 328.666,225.965 329.5,230.5C 328.253,232.323 327.586,234.323 327.5,236.5C 326.448,236.351 325.448,236.517 324.5,237C 327.695,237.181 330.695,237.681 333.5,238.5C 325.16,238.334 316.827,238.5 308.5,239C 307.584,239.374 306.75,239.874 306,240.5C 304.849,236.563 304.016,232.563 303.5,228.5C 303.115,225.629 304.115,223.463 306.5,222C 315.497,221.375 324.497,220.875 333.5,220.5 Z"/></g>
<g><path style="opacity:1" fill="#1f343f" d="M 162.5,248.5 C 162.98,253.822 163.313,259.155 163.5,264.5C 162.527,262.052 162.194,259.385 162.5,256.5C 161.5,256.5 160.5,256.5 159.5,256.5C 159.02,253.557 158.02,250.89 156.5,248.5C 154.467,244.979 152.8,241.312 151.5,237.5C 150.638,232.187 150.471,226.854 151,221.5C 154.705,214.893 155.205,215.226 152.5,222.5C 154.218,231.912 157.551,240.578 162.5,248.5 Z"/></g>
<g><path style="opacity:1" fill="#ecf1f2" d="M 290.5,222.5 C 285.922,234.005 281.589,245.671 277.5,257.5C 276.572,260.454 275.739,263.454 275,266.5C 274.121,269.346 272.454,270.013 270,268.5C 268.97,263.452 267.137,258.785 264.5,254.5C 261.736,247.316 258.736,240.316 255.5,233.5C 254.201,228.236 251.868,223.569 248.5,219.5C 248.557,218.391 248.89,217.391 249.5,216.5C 249.833,216.5 250.167,216.5 250.5,216.5C 252.39,216.297 253.89,216.963 255,218.5C 259.957,230.945 265.124,243.279 270.5,255.5C 271.788,259.194 272.955,258.86 274,254.5C 277.959,243.454 281.792,232.454 285.5,221.5C 285,217.507 286.5,215.84 290,216.5C 290.495,218.473 290.662,220.473 290.5,222.5 Z"/></g>
<g><path style="opacity:1" fill="#13303c" d="M 300.5,220.5 C 297.62,227.801 298.287,234.801 302.5,241.5C 300.265,247.695 299.932,254.028 301.5,260.5C 300.167,260.5 298.833,260.5 297.5,260.5C 296.339,254.487 296.172,248.487 297,242.5C 294.876,243.227 292.709,243.894 290.5,244.5C 289.951,249.644 289.118,254.644 288,259.5C 286.833,257.833 285.667,256.167 284.5,254.5C 282.206,255.706 279.873,256.706 277.5,257.5C 281.589,245.671 285.922,234.005 290.5,222.5C 293.488,220.727 296.821,220.06 300.5,220.5 Z"/></g>
<g><path style="opacity:1" fill="#1c2c36" d="M 201.5,222.5 C 202.5,222.5 203.5,222.5 204.5,222.5C 204.338,224.527 204.505,226.527 205,228.5C 206.441,227.13 208.108,226.13 210,225.5C 212.988,228.081 214.154,231.414 213.5,235.5C 212.022,235.238 210.689,235.571 209.5,236.5C 210.274,237.711 211.107,237.711 212,236.5C 212.456,237.744 211.956,238.577 210.5,239C 211.448,239.483 212.448,239.649 213.5,239.5C 213.393,237.097 214.393,235.264 216.5,234C 215.233,232.204 215.233,230.371 216.5,228.5C 218.193,227.772 219.693,226.772 221,225.5C 221.383,226.056 221.883,226.389 222.5,226.5C 218.636,238.257 214.469,249.924 210,261.5C 209.503,263.81 209.337,266.143 209.5,268.5C 208.849,267.909 208.182,267.243 207.5,266.5C 205.081,266.914 203.081,267.914 201.5,269.5C 200.698,268.048 200.198,266.382 200,264.5C 199.5,255.506 199.334,246.506 199.5,237.5C 200.167,232.5 200.833,227.5 201.5,222.5 Z"/></g>
<g><path style="opacity:1" fill="#1d303a" d="M 246.5,266.5 C 245.504,266.586 244.671,266.252 244,265.5C 243.427,263.359 242.594,261.359 241.5,259.5C 240.052,257.445 238.719,255.278 237.5,253C 232.833,252.333 228.167,252.333 223.5,253C 219.896,255.807 216.896,258.973 214.5,262.5C 218.697,250.412 223.197,238.412 228,226.5C 231.702,232.767 234.536,239.433 236.5,246.5C 232.154,246.334 227.821,246.501 223.5,247C 222.483,248.049 222.316,249.216 223,250.5C 228.417,251.309 233.917,251.809 239.5,252C 242.248,256.661 244.581,261.495 246.5,266.5 Z"/></g>
<g><path style="opacity:1" fill="#eaf0f1" d="M 199.5,237.5 C 199.334,246.506 199.5,255.506 200,264.5C 200.198,266.382 200.698,268.048 201.5,269.5C 203.293,272.987 202.293,274.487 198.5,274C 197.619,273.292 196.953,272.458 196.5,271.5C 195.85,269.565 195.517,267.565 195.5,265.5C 195.831,258.137 195.497,250.803 194.5,243.5C 186.622,245.205 178.622,246.205 170.5,246.5C 169.542,246.047 168.708,245.381 168,244.5C 167.178,252.345 167.344,260.011 168.5,267.5C 168.263,268.791 168.596,269.791 169.5,270.5C 169.5,271.5 169.5,272.5 169.5,273.5C 168.167,273.5 166.833,273.5 165.5,273.5C 164.583,270.583 163.916,267.583 163.5,264.5C 163.313,259.155 162.98,253.822 162.5,248.5C 162.181,238.251 162.514,228.084 163.5,218C 164.784,217.316 165.951,217.483 167,218.5C 167.333,226.5 167.667,234.5 168,242.5C 169.011,241.663 170.178,241.33 171.5,241.5C 172.391,240.89 173.391,240.557 174.5,240.5C 179.511,240.666 184.511,240.499 189.5,240C 190.737,239.768 191.737,239.268 192.5,238.5C 193.117,238.611 193.617,238.944 194,239.5C 194.169,232.144 194.669,224.811 195.5,217.5C 196.72,216.289 197.887,216.289 199,217.5C 199.5,224.158 199.666,230.825 199.5,237.5 Z"/></g>
<g><path style="opacity:1" fill="#16252d" d="M 192.5,238.5 C 191.737,239.268 190.737,239.768 189.5,240C 184.511,240.499 179.511,240.666 174.5,240.5C 174.5,234.833 174.5,229.167 174.5,223.5C 175.833,223.5 177.167,223.5 178.5,223.5C 178.298,225.989 178.798,228.323 180,230.5C 183.064,229.436 185.564,227.603 187.5,225C 189.367,224.289 190.867,224.789 192,226.5C 192.333,226.167 192.667,225.833 193,225.5C 193.499,229.152 193.665,232.818 193.5,236.5C 192.325,236.281 191.325,236.614 190.5,237.5C 190.957,238.298 191.624,238.631 192.5,238.5 Z"/></g>
<g><path style="opacity:1" fill="#132630" d="M 254.5,207.5 C 253.426,210.499 253.593,213.499 255,216.5C 258.622,216.582 262.288,216.582 266,216.5C 269.721,218.251 273.221,218.251 276.5,216.5C 277.1,221.308 277.933,226.308 279,231.5C 279.278,230.584 279.778,229.918 280.5,229.5C 277.125,238.233 273.792,246.9 270.5,255.5C 265.124,243.279 259.957,230.945 255,218.5C 253.89,216.963 252.39,216.297 250.5,216.5C 250.557,215.391 250.89,214.391 251.5,213.5C 251.755,211.033 252.755,209.033 254.5,207.5 Z"/></g>
<g><path style="opacity:1" fill="#121b21" d="M 329.5,243.5 C 326.894,244.743 326.894,246.076 329.5,247.5C 328.135,249.751 328.469,251.751 330.5,253.5C 329.624,254.251 328.624,254.751 327.5,255C 328.767,257.618 330.767,259.451 333.5,260.5C 325.01,261.657 316.343,261.824 307.5,261C 307,260.5 306.5,260 306,259.5C 301.587,246.43 306.087,240.763 319.5,242.5C 323.018,242.502 326.351,242.835 329.5,243.5 Z"/></g>
<g><path style="opacity:1" fill="#163f56" d="M 285.5,221.5 C 281.792,232.454 277.959,243.454 274,254.5C 272.955,258.86 271.788,259.194 270.5,255.5C 273.792,246.9 277.125,238.233 280.5,229.5C 280.337,227.143 280.503,224.81 281,222.5C 281.333,222.833 281.667,223.167 282,223.5C 282.533,221.061 283.7,220.395 285.5,221.5 Z"/></g>
<g><path style="opacity:1" fill="#194353" d="M 249.5,233.5 C 250.165,239.477 250.498,245.477 250.5,251.5C 248.784,251.629 247.117,251.962 245.5,252.5C 244.662,252.158 244.328,251.492 244.5,250.5C 244.407,240.26 242.073,230.593 237.5,221.5C 238.557,221.094 239.891,221.094 241.5,221.5C 241.351,222.552 241.517,223.552 242,224.5C 242.333,222.833 242.667,221.167 243,219.5C 245.285,224.227 247.452,228.893 249.5,233.5 Z"/></g>
<g><path style="opacity:1" fill="#09759f" d="M 259.5,249.5 C 259.531,252.959 260.198,256.292 261.5,259.5C 260.743,260.773 260.077,260.773 259.5,259.5C 257.516,253.054 255.849,246.554 254.5,240C 255.448,239.517 256.448,239.351 257.5,239.5C 257.753,243.04 258.419,246.373 259.5,249.5 Z"/></g>
<g><path style="opacity:1" fill="#12242c" d="M 241.5,259.5 C 240.5,259.5 239.5,259.5 238.5,259.5C 237.833,257.5 237.167,255.5 236.5,253.5C 233.639,253.513 232.639,254.679 233.5,257C 231.431,257.324 231.098,258.158 232.5,259.5C 231.959,261.535 231.292,263.535 230.5,265.5C 229.614,264.675 229.281,263.675 229.5,262.5C 226.309,263.72 222.975,264.553 219.5,265C 220.082,267.974 221.415,270.474 223.5,272.5C 221.304,272.59 219.137,272.923 217,273.5C 216.167,273.167 215.333,272.833 214.5,272.5C 214.006,270.974 213.339,269.641 212.5,268.5C 213.363,266.579 214.029,264.579 214.5,262.5C 216.896,258.973 219.896,255.807 223.5,253C 228.167,252.333 232.833,252.333 237.5,253C 238.719,255.278 240.052,257.445 241.5,259.5 Z"/></g>
<g><path style="opacity:1" fill="#184153" d="M 255.5,233.5 C 258.736,240.316 261.736,247.316 264.5,254.5C 262.314,253.177 260.814,251.177 260,248.5C 259.601,248.728 259.435,249.062 259.5,249.5C 258.419,246.373 257.753,243.04 257.5,239.5C 256.448,239.351 255.448,239.517 254.5,240C 255.849,246.554 257.516,253.054 259.5,259.5C 258.542,259.047 257.708,258.381 257,257.5C 256.665,259.503 255.832,261.17 254.5,262.5C 252.892,256.073 251.892,249.407 251.5,242.5C 251.865,239.638 253.531,238.138 256.5,238C 255.62,236.644 255.286,235.144 255.5,233.5 Z"/></g>
<g><path style="opacity:1" fill="#194055" d="M 170.5,246.5 C 170.666,253.175 170.5,259.842 170,266.5C 168.913,264.068 168.413,264.402 168.5,267.5C 167.344,260.011 167.178,252.345 168,244.5C 168.708,245.381 169.542,246.047 170.5,246.5 Z"/></g>
<g><path style="opacity:1" fill="#192933" d="M 195.5,265.5 C 194.055,261.079 193.222,256.412 193,251.5C 191,254.167 189,254.167 187,251.5C 186.549,253.929 185.715,254.096 184.5,252C 185.833,250.16 185.666,249.66 184,250.5C 183.333,249.833 182.667,249.167 182,248.5C 181,252.167 180,255.833 179,259.5C 178.346,258.304 177.846,258.304 177.5,259.5C 178.97,262.319 178.804,264.986 177,267.5C 176.02,265.941 175.187,264.274 174.5,262.5C 173.575,263.641 172.741,263.641 172,262.5C 171.903,265.482 171.07,268.149 169.5,270.5C 168.596,269.791 168.263,268.791 168.5,267.5C 168.413,264.402 168.913,264.068 170,266.5C 170.5,259.842 170.666,253.175 170.5,246.5C 178.622,246.205 186.622,245.205 194.5,243.5C 195.497,250.803 195.831,258.137 195.5,265.5 Z"/></g>
<g><path style="opacity:1" fill="#0f1f26" d="M 301.5,260.5 C 301.5,260.833 301.5,261.167 301.5,261.5C 299.833,261.5 298.167,261.5 296.5,261.5C 296.5,262.833 296.5,264.167 296.5,265.5C 295.685,266.429 294.852,267.429 294,268.5C 294.077,267.262 293.911,266.262 293.5,265.5C 290.428,265.87 287.761,267.037 285.5,269C 285.957,269.414 286.291,269.914 286.5,270.5C 284.821,271.782 282.987,272.782 281,273.5C 277.356,271.377 273.523,270.877 269.5,272C 268.204,269.706 267.371,266.873 267,263.5C 266.107,264.081 265.107,264.415 264,264.5C 261.081,262.928 257.915,262.261 254.5,262.5C 255.832,261.17 256.665,259.503 257,257.5C 257.708,258.381 258.542,259.047 259.5,259.5C 260.077,260.773 260.743,260.773 261.5,259.5C 260.198,256.292 259.531,252.959 259.5,249.5C 259.435,249.062 259.601,248.728 260,248.5C 260.814,251.177 262.314,253.177 264.5,254.5C 267.137,258.785 268.97,263.452 270,268.5C 272.454,270.013 274.121,269.346 275,266.5C 275.739,263.454 276.572,260.454 277.5,257.5C 279.873,256.706 282.206,255.706 284.5,254.5C 285.667,256.167 286.833,257.833 288,259.5C 289.118,254.644 289.951,249.644 290.5,244.5C 292.709,243.894 294.876,243.227 297,242.5C 296.172,248.487 296.339,254.487 297.5,260.5C 298.833,260.5 300.167,260.5 301.5,260.5 Z"/></g>
<g><path style="opacity:1" fill="#143543" d="M 301.5,261.5 C 302.673,263.504 304.34,265.004 306.5,266C 310.821,266.499 315.154,266.666 319.5,266.5C 320.568,267.434 321.901,267.768 323.5,267.5C 320.544,269.341 317.211,270.341 313.5,270.5C 308.161,270.066 302.827,269.566 297.5,269C 296.663,267.989 296.33,266.822 296.5,265.5C 296.5,264.167 296.5,262.833 296.5,261.5C 298.167,261.5 299.833,261.5 301.5,261.5 Z"/></g>
<g><path style="opacity:1" fill="#1a2025" d="M 195.5,265.5 C 195.517,267.565 195.85,269.565 196.5,271.5C 193.824,271.204 190.99,271.537 188,272.5C 186.373,272.375 184.873,271.875 183.5,271C 182.7,266.92 182.2,262.753 182,258.5C 181.219,263.554 181.386,268.554 182.5,273.5C 181.456,274.623 180.79,275.956 180.5,277.5C 181.603,283.531 183.27,289.364 185.5,295C 183.963,296.936 181.963,298.103 179.5,298.5C 179.31,295.123 177.81,292.456 175,290.5C 174.51,291.793 174.343,293.127 174.5,294.5C 172.801,294.34 171.134,294.506 169.5,295C 170.056,295.383 170.389,295.883 170.5,296.5C 166.452,295.322 162.452,295.322 158.5,296.5C 162.183,294.336 165.516,291.503 168.5,288C 170.384,287.784 172.051,287.117 173.5,286C 172.512,282.255 171.845,278.422 171.5,274.5C 169.265,274.795 167.265,274.461 165.5,273.5C 166.833,273.5 168.167,273.5 169.5,273.5C 169.5,272.5 169.5,271.5 169.5,270.5C 171.07,268.149 171.903,265.482 172,262.5C 172.741,263.641 173.575,263.641 174.5,262.5C 175.187,264.274 176.02,265.941 177,267.5C 178.804,264.986 178.97,262.319 177.5,259.5C 177.846,258.304 178.346,258.304 179,259.5C 180,255.833 181,252.167 182,248.5C 182.667,249.167 183.333,249.833 184,250.5C 185.666,249.66 185.833,250.16 184.5,252C 185.715,254.096 186.549,253.929 187,251.5C 189,254.167 191,254.167 193,251.5C 193.222,256.412 194.055,261.079 195.5,265.5 Z"/></g>
<g><path style="opacity:1" fill="#0d0d0d" d="M 156.5,248.5 C 158.02,250.89 159.02,253.557 159.5,256.5C 160.5,256.5 161.5,256.5 162.5,256.5C 162.194,259.385 162.527,262.052 163.5,264.5C 163.916,267.583 164.583,270.583 165.5,273.5C 167.265,274.461 169.265,274.795 171.5,274.5C 171.845,278.422 172.512,282.255 173.5,286C 172.051,287.117 170.384,287.784 168.5,288C 165.516,291.503 162.183,294.336 158.5,296.5C 157.167,296.833 155.833,297.167 154.5,297.5C 151.807,294.419 150.807,290.753 151.5,286.5C 149.897,286.312 148.563,286.812 147.5,288C 147.833,288.333 148.167,288.667 148.5,289C 147.736,291.069 147.236,293.236 147,295.5C 146.667,295.167 146.333,294.833 146,294.5C 144.307,296.027 142.473,297.36 140.5,298.5C 139.833,297.833 139.167,297.167 138.5,296.5C 137.893,296.624 137.56,296.957 137.5,297.5C 136.489,300.94 135.489,304.274 134.5,307.5C 134.284,303.941 134.618,300.441 135.5,297C 134.289,294.718 132.622,294.218 130.5,295.5C 129.571,296.689 129.238,298.022 129.5,299.5C 128.732,298.737 128.232,297.737 128,296.5C 127.333,303.167 126.667,309.833 126,316.5C 125.667,316.833 125.333,317.167 125,317.5C 125.838,301.867 126.505,286.2 127,270.5C 127.333,271.5 127.667,272.5 128,273.5C 128.333,273.167 128.667,272.833 129,272.5C 129.182,269.774 129.682,267.107 130.5,264.5C 131.833,266.833 133.167,269.167 134.5,271.5C 135.5,272.833 136.5,272.833 137.5,271.5C 136.833,269.167 136.167,266.833 135.5,264.5C 136.478,263.199 136.145,262.032 134.5,261C 134.667,260.5 134.833,260 135,259.5C 135.308,260.308 135.808,260.975 136.5,261.5C 137.76,259.647 137.76,257.814 136.5,256C 137.967,254.902 138.801,253.402 139,251.5C 139.324,253.569 140.158,253.902 141.5,252.5C 142.134,250.433 143.134,248.6 144.5,247C 145.635,246.251 146.635,246.417 147.5,247.5C 144.26,252.57 145.094,253.903 150,251.5C 150.868,255.79 152.868,256.456 156,253.5C 156.494,251.866 156.66,250.199 156.5,248.5 Z"/></g>
<g><path style="opacity:1" fill="#0b1215" d="M 248.5,219.5 C 251.868,223.569 254.201,228.236 255.5,233.5C 255.286,235.144 255.62,236.644 256.5,238C 253.531,238.138 251.865,239.638 251.5,242.5C 251.892,249.407 252.892,256.073 254.5,262.5C 257.915,262.261 261.081,262.928 264,264.5C 265.107,264.415 266.107,264.081 267,263.5C 267.371,266.873 268.204,269.706 269.5,272C 273.523,270.877 277.356,271.377 281,273.5C 282.987,272.782 284.821,271.782 286.5,270.5C 286.291,269.914 285.957,269.414 285.5,269C 287.761,267.037 290.428,265.87 293.5,265.5C 293.911,266.262 294.077,267.262 294,268.5C 294.852,267.429 295.685,266.429 296.5,265.5C 296.33,266.822 296.663,267.989 297.5,269C 302.827,269.566 308.161,270.066 313.5,270.5C 317.211,270.341 320.544,269.341 323.5,267.5C 329.269,266.896 334.602,268.062 339.5,271C 349.857,273.337 360.191,275.671 370.5,278C 367.8,278.253 365.133,278.253 362.5,278C 363.167,278.333 363.833,278.667 364.5,279C 361.962,281.359 362.629,282.859 366.5,283.5C 365.998,284.716 365.665,285.883 365.5,287C 367.903,288.853 370.236,290.686 372.5,292.5C 371.178,292.33 370.011,292.663 369,293.5C 368.321,297.878 367.488,302.211 366.5,306.5C 365.778,306.082 365.278,305.416 365,304.5C 364.684,299.744 364.184,295.411 363.5,291.5C 358.177,293.267 353.51,292.267 349.5,288.5C 349.346,289.909 349.179,291.576 349,293.5C 347.47,291.774 346.47,289.774 346,287.5C 344.719,287.619 343.552,287.119 342.5,286C 343.993,284.844 343.826,284.01 342,283.5C 340.273,283.646 340.106,284.313 341.5,285.5C 340.5,286.833 339.5,288.167 338.5,289.5C 330.852,288.047 323.186,286.714 315.5,285.5C 315.634,287.292 315.301,288.958 314.5,290.5C 312.833,290.5 311.167,290.5 309.5,290.5C 309.5,291.833 309.5,293.167 309.5,294.5C 309.5,294.833 309.5,295.167 309.5,295.5C 303.801,295.907 298.134,296.573 292.5,297.5C 289.693,296.343 287.026,296.343 284.5,297.5C 283.833,297.167 283.167,296.833 282.5,296.5C 277.635,296.073 273.301,297.74 269.5,301.5C 263.474,301.651 257.807,300.318 252.5,297.5C 251.89,296.609 251.557,295.609 251.5,294.5C 251.577,293.25 252.244,292.417 253.5,292C 250.102,290.444 247.102,288.277 244.5,285.5C 243.583,286.127 242.583,286.461 241.5,286.5C 242.984,283.101 242.317,280.101 239.5,277.5C 236.949,277.384 234.449,277.384 232,277.5C 230.307,279.454 228.307,279.454 226,277.5C 225.626,275.509 224.793,273.842 223.5,272.5C 221.415,270.474 220.082,267.974 219.5,265C 222.975,264.553 226.309,263.72 229.5,262.5C 229.281,263.675 229.614,264.675 230.5,265.5C 231.292,263.535 231.959,261.535 232.5,259.5C 231.098,258.158 231.431,257.324 233.5,257C 232.639,254.679 233.639,253.513 236.5,253.5C 237.167,255.5 237.833,257.5 238.5,259.5C 239.5,259.5 240.5,259.5 241.5,259.5C 242.594,261.359 243.427,263.359 244,265.5C 244.671,266.252 245.504,266.586 246.5,266.5C 248.462,269.152 250.462,269.152 252.5,266.5C 249.784,262.014 247.45,257.347 245.5,252.5C 247.117,251.962 248.784,251.629 250.5,251.5C 250.498,245.477 250.165,239.477 249.5,233.5C 249.167,228.833 248.833,224.167 248.5,219.5 Z"/></g>
<g><path style="opacity:1" fill="#141517" d="M 196.5,271.5 C 196.953,272.458 197.619,273.292 198.5,274C 202.293,274.487 203.293,272.987 201.5,269.5C 203.081,267.914 205.081,266.914 207.5,266.5C 208.182,267.243 208.849,267.909 209.5,268.5C 210.5,269.833 211.5,269.833 212.5,268.5C 213.339,269.641 214.006,270.974 214.5,272.5C 215.333,272.833 216.167,273.167 217,273.5C 219.137,272.923 221.304,272.59 223.5,272.5C 224.793,273.842 225.626,275.509 226,277.5C 228.307,279.454 230.307,279.454 232,277.5C 234.449,277.384 236.949,277.384 239.5,277.5C 242.317,280.101 242.984,283.101 241.5,286.5C 238.177,287.362 234.677,288.028 231,288.5C 227.604,287.499 225.271,288.832 224,292.5C 223.51,291.207 223.343,289.873 223.5,288.5C 221.208,288.756 219.041,288.423 217,287.5C 216.023,289.74 215.523,292.073 215.5,294.5C 214.325,294.281 213.325,294.614 212.5,295.5C 211.286,297.421 209.786,299.088 208,300.5C 206.803,298.117 205.97,298.45 205.5,301.5C 206.866,304.024 206.033,305.691 203,306.5C 202.221,303.903 201.721,303.903 201.5,306.5C 200.518,305.859 199.518,305.193 198.5,304.5C 197.897,306.452 198.23,308.452 199.5,310.5C 199.252,313.206 200.419,315.54 203,317.5C 203.655,319.628 204.489,321.628 205.5,323.5C 200.919,321.85 196.585,322.35 192.5,325C 195.167,325.667 195.167,326.333 192.5,327C 194.183,329.594 194.683,332.761 194,336.5C 191.86,337.728 190.193,339.395 189,341.5C 188.667,341.167 188.333,340.833 188,340.5C 186.933,341.191 185.766,341.691 184.5,342C 183.015,344.477 181.181,346.644 179,348.5C 177.011,347.88 175.178,347.547 173.5,347.5C 179.184,345.467 182.518,341.467 183.5,335.5C 184.117,335.389 184.617,335.056 185,334.5C 185.218,331.574 185.718,328.74 186.5,326C 184.627,324.296 182.96,322.463 181.5,320.5C 181.629,318.784 181.962,317.117 182.5,315.5C 183.518,312.623 183.351,309.623 182,306.5C 180.334,304.004 178.5,301.671 176.5,299.5C 177.391,298.89 178.391,298.557 179.5,298.5C 181.963,298.103 183.963,296.936 185.5,295C 183.27,289.364 181.603,283.531 180.5,277.5C 180.79,275.956 181.456,274.623 182.5,273.5C 181.386,268.554 181.219,263.554 182,258.5C 182.2,262.753 182.7,266.92 183.5,271C 184.873,271.875 186.373,272.375 188,272.5C 190.99,271.537 193.824,271.204 196.5,271.5 Z"/></g>
<g><path style="opacity:1" fill="#294457" d="M 179.5,298.5 C 178.391,298.557 177.391,298.89 176.5,299.5C 174.456,298.492 172.456,297.492 170.5,296.5C 170.389,295.883 170.056,295.383 169.5,295C 171.134,294.506 172.801,294.34 174.5,294.5C 174.343,293.127 174.51,291.793 175,290.5C 177.81,292.456 179.31,295.123 179.5,298.5 Z"/></g>
<g><path style="opacity:1" fill="#edf3f3" d="M 314.5,290.5 C 315.167,291.5 315.833,292.5 316.5,293.5C 319.697,303.759 322.697,314.092 325.5,324.5C 326.038,327.653 327.038,330.653 328.5,333.5C 329.086,333.291 329.586,332.957 330,332.5C 333.457,323.679 336.457,314.679 339,305.5C 339.78,303.613 339.613,301.946 338.5,300.5C 337.314,298.126 337.314,295.792 338.5,293.5C 340.239,292.566 341.905,292.566 343.5,293.5C 343.346,298.766 345.179,303.099 349,306.5C 351.202,310.606 352.702,314.939 353.5,319.5C 354.323,321.987 355.323,324.321 356.5,326.5C 356.755,329.016 357.589,331.35 359,333.5C 361.945,324.603 364.445,315.603 366.5,306.5C 367.488,302.211 368.321,297.878 369,293.5C 370.011,292.663 371.178,292.33 372.5,292.5C 373.147,293.274 373.48,294.274 373.5,295.5C 372.82,300.585 371.82,305.585 370.5,310.5C 369.715,312.374 369.048,314.374 368.5,316.5C 366.966,326.09 364.632,335.423 361.5,344.5C 361.5,345.5 361.5,346.5 361.5,347.5C 360.167,347.5 358.833,347.5 357.5,347.5C 357.167,346.833 356.833,346.167 356.5,345.5C 353.598,333.231 349.764,321.231 345,309.5C 344.107,308.289 343.274,308.289 342.5,309.5C 341.341,313.136 340.341,316.802 339.5,320.5C 337.882,327.189 335.382,333.522 332,339.5C 331.506,341.134 331.34,342.801 331.5,344.5C 330.341,346.377 328.674,346.877 326.5,346C 325.663,344.989 325.33,343.822 325.5,342.5C 322.182,330.228 319.015,317.894 316,305.5C 315.058,302.007 313.725,298.674 312,295.5C 311.329,294.748 310.496,294.414 309.5,294.5C 309.5,293.167 309.5,291.833 309.5,290.5C 311.167,290.5 312.833,290.5 314.5,290.5 Z"/></g>
<g><path style="opacity:1" fill="#11262d" d="M 366.5,306.5 C 364.445,315.603 361.945,324.603 359,333.5C 357.589,331.35 356.755,329.016 356.5,326.5C 356.857,324.411 357.523,322.411 358.5,320.5C 360.053,319.561 361.387,318.394 362.5,317C 361.427,315.584 361.427,314.25 362.5,313C 359.8,312.051 358.967,310.217 360,307.5C 360.667,308.833 361.333,308.833 362,307.5C 362.821,304.446 362.655,301.446 361.5,298.5C 358.31,304.406 356.31,310.74 355.5,317.5C 355.253,318.713 354.586,319.38 353.5,319.5C 352.702,314.939 351.202,310.606 349,306.5C 345.179,303.099 343.346,298.766 343.5,293.5C 341.905,292.566 340.239,292.566 338.5,293.5C 338.53,292.503 338.03,291.836 337,291.5C 335.495,292.673 333.995,293.839 332.5,295C 328.893,293.551 326.393,294.718 325,298.5C 324.691,297.234 324.191,296.067 323.5,295C 321.559,294.696 319.893,293.863 318.5,292.5C 317.817,292.863 317.15,293.196 316.5,293.5C 315.833,292.5 315.167,291.5 314.5,290.5C 315.301,288.958 315.634,287.292 315.5,285.5C 323.186,286.714 330.852,288.047 338.5,289.5C 339.5,288.167 340.5,286.833 341.5,285.5C 340.106,284.313 340.273,283.646 342,283.5C 343.826,284.01 343.993,284.844 342.5,286C 343.552,287.119 344.719,287.619 346,287.5C 346.47,289.774 347.47,291.774 349,293.5C 349.179,291.576 349.346,289.909 349.5,288.5C 353.51,292.267 358.177,293.267 363.5,291.5C 364.184,295.411 364.684,299.744 365,304.5C 365.278,305.416 365.778,306.082 366.5,306.5 Z"/></g>
<g><path style="opacity:1" fill="#e8f1f3" d="M 134.5,307.5 C 133.459,319.329 133.459,330.996 134.5,342.5C 135.136,345.106 135.136,347.606 134.5,350C 131.632,350.64 129.965,349.473 129.5,346.5C 129.5,337.5 129.5,328.5 129.5,319.5C 129.5,312.833 129.5,306.167 129.5,299.5C 129.238,298.022 129.571,296.689 130.5,295.5C 132.622,294.218 134.289,294.718 135.5,297C 134.618,300.441 134.284,303.941 134.5,307.5 Z"/></g>
<g><path style="opacity:1" fill="#ebeff0" d="M 170.5,296.5 C 172.456,297.492 174.456,298.492 176.5,299.5C 178.5,301.671 180.334,304.004 182,306.5C 183.351,309.623 183.518,312.623 182.5,315.5C 181.167,315.5 179.833,315.5 178.5,315.5C 177.808,305.976 172.641,300.976 163,300.5C 160.456,300.336 158.29,301.003 156.5,302.5C 151.929,304.996 150.762,308.662 153,313.5C 155.251,315.377 157.751,316.877 160.5,318C 167.043,319.881 173.377,322.215 179.5,325C 182.373,327.913 183.706,331.413 183.5,335.5C 182.518,341.467 179.184,345.467 173.5,347.5C 161.495,351.499 152.162,348.166 145.5,337.5C 145.5,334.833 145.5,332.167 145.5,329.5C 147.586,327.977 149.252,328.31 150.5,330.5C 150.006,337.196 153.006,341.696 159.5,344C 167.353,345.884 173.686,343.717 178.5,337.5C 179.186,333.713 178.186,330.546 175.5,328C 170.98,325.993 166.313,324.493 161.5,323.5C 158.226,322.12 154.893,320.62 151.5,319C 145.504,310.795 146.504,303.629 154.5,297.5C 155.833,297.167 157.167,296.833 158.5,296.5C 162.452,295.322 166.452,295.322 170.5,296.5 Z"/></g>
<g><path style="opacity:1" fill="#f0f4f5" d="M 248.5,294.5 C 249.5,294.5 250.5,294.5 251.5,294.5C 251.557,295.609 251.89,296.609 252.5,297.5C 251.608,315.184 251.274,332.851 251.5,350.5C 249.027,350.912 247.694,349.912 247.5,347.5C 237.602,334.717 228.436,321.384 220,307.5C 219.51,308.793 219.343,310.127 219.5,311.5C 219.667,324.837 219.5,338.171 219,351.5C 218.283,352.044 217.783,352.711 217.5,353.5C 216.883,353.389 216.383,353.056 216,352.5C 215.5,346.175 215.334,339.842 215.5,333.5C 215.5,332.833 215.5,332.167 215.5,331.5C 215.763,320.754 215.096,310.087 213.5,299.5C 214.048,296.916 215.715,295.916 218.5,296.5C 220.424,298.695 222.091,301.028 223.5,303.5C 229.936,316.103 237.769,327.77 247,338.5C 247.824,329.324 247.657,320.324 246.5,311.5C 246.334,306.489 246.501,301.489 247,296.5C 247.717,295.956 248.217,295.289 248.5,294.5 Z"/></g>
<g><path style="opacity:1" fill="#182124" d="M 251.5,294.5 C 250.5,294.5 249.5,294.5 248.5,294.5C 246.559,294.217 244.893,292.883 243.5,290.5C 242.955,295.978 242.121,301.311 241,306.5C 237.927,306.938 234.927,306.271 232,304.5C 231.586,304.957 231.086,305.291 230.5,305.5C 227.829,302.163 225.663,298.496 224,294.5C 223.667,296.5 223.333,298.5 223,300.5C 222.818,297.774 222.318,295.107 221.5,292.5C 220.85,294.184 219.85,295.517 218.5,296.5C 215.715,295.916 214.048,296.916 213.5,299.5C 211.77,303.184 210.77,307.184 210.5,311.5C 206.31,311.977 203.31,310.311 201.5,306.5C 201.721,303.903 202.221,303.903 203,306.5C 206.033,305.691 206.866,304.024 205.5,301.5C 205.97,298.45 206.803,298.117 208,300.5C 209.786,299.088 211.286,297.421 212.5,295.5C 213.325,294.614 214.325,294.281 215.5,294.5C 215.523,292.073 216.023,289.74 217,287.5C 219.041,288.423 221.208,288.756 223.5,288.5C 223.343,289.873 223.51,291.207 224,292.5C 225.271,288.832 227.604,287.499 231,288.5C 234.677,288.028 238.177,287.362 241.5,286.5C 242.583,286.461 243.583,286.127 244.5,285.5C 247.102,288.277 250.102,290.444 253.5,292C 252.244,292.417 251.577,293.25 251.5,294.5 Z"/></g>
<g><path style="opacity:1" fill="#1b2e38" d="M 248.5,294.5 C 248.217,295.289 247.717,295.956 247,296.5C 246.501,301.489 246.334,306.489 246.5,311.5C 245.417,311.461 244.417,311.127 243.5,310.5C 242.676,313.785 242.176,317.118 242,320.5C 239.519,318.542 236.853,316.875 234,315.5C 233.667,315.833 233.333,316.167 233,316.5C 234.903,311.614 233.236,307.947 228,305.5C 227.667,306.167 227.333,306.833 227,307.5C 226.502,305.456 225.335,304.122 223.5,303.5C 222.091,301.028 220.424,298.695 218.5,296.5C 219.85,295.517 220.85,294.184 221.5,292.5C 222.318,295.107 222.818,297.774 223,300.5C 223.333,298.5 223.667,296.5 224,294.5C 225.663,298.496 227.829,302.163 230.5,305.5C 231.086,305.291 231.586,304.957 232,304.5C 234.927,306.271 237.927,306.938 241,306.5C 242.121,301.311 242.955,295.978 243.5,290.5C 244.893,292.883 246.559,294.217 248.5,294.5 Z"/></g>
<g><path style="opacity:1" fill="#142229" d="M 154.5,297.5 C 146.504,303.629 145.504,310.795 151.5,319C 154.893,320.62 158.226,322.12 161.5,323.5C 159.9,325.298 159.566,327.298 160.5,329.5C 158.326,330.893 156.493,330.56 155,328.5C 154.517,329.448 154.351,330.448 154.5,331.5C 153.778,331.082 153.278,330.416 153,329.5C 152.329,330.252 151.496,330.586 150.5,330.5C 149.252,328.31 147.586,327.977 145.5,329.5C 143.167,332.167 140.833,334.833 138.5,337.5C 138.829,323.99 138.496,310.656 137.5,297.5C 137.56,296.957 137.893,296.624 138.5,296.5C 139.167,297.167 139.833,297.833 140.5,298.5C 142.473,297.36 144.307,296.027 146,294.5C 146.333,294.833 146.667,295.167 147,295.5C 147.236,293.236 147.736,291.069 148.5,289C 148.167,288.667 147.833,288.333 147.5,288C 148.563,286.812 149.897,286.312 151.5,286.5C 150.807,290.753 151.807,294.419 154.5,297.5 Z"/></g>
<g><path style="opacity:1" fill="#213038" d="M 213.5,299.5 C 215.096,310.087 215.763,320.754 215.5,331.5C 213.254,325 210.421,318.667 207,312.5C 207.324,316.487 207.991,320.487 209,324.5C 210.357,327.686 211.857,330.686 213.5,333.5C 212.791,334.404 211.791,334.737 210.5,334.5C 209.801,330.406 208.134,326.739 205.5,323.5C 204.489,321.628 203.655,319.628 203,317.5C 200.419,315.54 199.252,313.206 199.5,310.5C 198.23,308.452 197.897,306.452 198.5,304.5C 199.518,305.193 200.518,305.859 201.5,306.5C 203.31,310.311 206.31,311.977 210.5,311.5C 210.77,307.184 211.77,303.184 213.5,299.5 Z"/></g>
<g><path style="opacity:1" fill="#173644" d="M 338.5,293.5 C 337.314,295.792 337.314,298.126 338.5,300.5C 336.856,300.286 335.356,300.62 334,301.5C 332.296,304.999 330.962,308.666 330,312.5C 329.55,309.894 328.05,308.561 325.5,308.5C 325.729,311.744 326.729,314.744 328.5,317.5C 328.239,320.292 327.239,322.625 325.5,324.5C 322.697,314.092 319.697,303.759 316.5,293.5C 317.15,293.196 317.817,292.863 318.5,292.5C 319.893,293.863 321.559,294.696 323.5,295C 324.191,296.067 324.691,297.234 325,298.5C 326.393,294.718 328.893,293.551 332.5,295C 333.995,293.839 335.495,292.673 337,291.5C 338.03,291.836 338.53,292.503 338.5,293.5 Z"/></g>
<g><path style="opacity:1" fill="#252931" d="M 182.5,315.5 C 181.962,317.117 181.629,318.784 181.5,320.5C 173.406,318.363 165.739,315.363 158.5,311.5C 156.73,308.807 156.063,305.807 156.5,302.5C 158.29,301.003 160.456,300.336 163,300.5C 172.641,300.976 177.808,305.976 178.5,315.5C 179.833,315.5 181.167,315.5 182.5,315.5 Z"/></g>
<g><path style="opacity:1" fill="#144c5e" d="M 338.5,300.5 C 339.613,301.946 339.78,303.613 339,305.5C 336.457,314.679 333.457,323.679 330,332.5C 329.586,332.957 329.086,333.291 328.5,333.5C 327.038,330.653 326.038,327.653 325.5,324.5C 327.239,322.625 328.239,320.292 328.5,317.5C 326.729,314.744 325.729,311.744 325.5,308.5C 328.05,308.561 329.55,309.894 330,312.5C 330.962,308.666 332.296,304.999 334,301.5C 335.356,300.62 336.856,300.286 338.5,300.5 Z"/></g>
<g><path style="opacity:1" fill="#154c64" d="M 309.5,294.5 C 310.496,294.414 311.329,294.748 312,295.5C 313.725,298.674 315.058,302.007 316,305.5C 319.015,317.894 322.182,330.228 325.5,342.5C 324.069,342.119 323.236,341.119 323,339.5C 322.683,341.301 322.016,341.634 321,340.5C 320.495,338.482 319.995,336.482 319.5,334.5C 317.509,326.534 315.509,318.534 313.5,310.5C 313.68,309.446 314.013,308.446 314.5,307.5C 313.753,307.264 312.92,306.93 312,306.5C 310.965,304.109 310.798,301.776 311.5,299.5C 310.37,298.378 309.703,297.044 309.5,295.5C 309.5,295.167 309.5,294.833 309.5,294.5 Z"/></g>
<g><path style="opacity:1" fill="#13708f" d="M 370.5,310.5 C 370.796,312.403 371.463,314.07 372.5,315.5C 372.666,321.509 372.499,327.509 372,333.5C 371.878,335.437 371.045,336.77 369.5,337.5C 369.5,336.833 369.5,336.167 369.5,335.5C 369.823,328.978 369.49,322.645 368.5,316.5C 369.048,314.374 369.715,312.374 370.5,310.5 Z"/></g>
<g><path style="opacity:1" fill="#274253" d="M 156.5,302.5 C 156.063,305.807 156.73,308.807 158.5,311.5C 165.739,315.363 173.406,318.363 181.5,320.5C 182.96,322.463 184.627,324.296 186.5,326C 185.718,328.74 185.218,331.574 185,334.5C 184.617,335.056 184.117,335.389 183.5,335.5C 183.706,331.413 182.373,327.913 179.5,325C 173.377,322.215 167.043,319.881 160.5,318C 157.751,316.877 155.251,315.377 153,313.5C 150.762,308.662 151.929,304.996 156.5,302.5 Z"/></g>
<g><path style="opacity:1" fill="#164258" d="M 137.5,297.5 C 138.496,310.656 138.829,323.99 138.5,337.5C 136.817,338.853 135.484,340.52 134.5,342.5C 133.459,330.996 133.459,319.329 134.5,307.5C 135.489,304.274 136.489,300.94 137.5,297.5 Z"/></g>
<g><path style="opacity:1" fill="#0b495e" d="M 356.5,326.5 C 355.323,324.321 354.323,321.987 353.5,319.5C 354.586,319.38 355.253,318.713 355.5,317.5C 356.31,310.74 358.31,304.406 361.5,298.5C 362.655,301.446 362.821,304.446 362,307.5C 361.333,308.833 360.667,308.833 360,307.5C 358.967,310.217 359.8,312.051 362.5,313C 361.427,314.25 361.427,315.584 362.5,317C 361.387,318.394 360.053,319.561 358.5,320.5C 357.523,322.411 356.857,324.411 356.5,326.5 Z"/></g>
<g><path style="opacity:1" fill="#15262c" d="M 377.5,319.5 C 376.673,324.985 376.173,330.652 376,336.5C 375.667,329.833 375.333,323.167 375,316.5C 374.667,323.5 374.333,330.5 374,337.5C 372.384,338.801 370.884,338.801 369.5,337.5C 371.045,336.77 371.878,335.437 372,333.5C 372.499,327.509 372.666,321.509 372.5,315.5C 375.813,314.839 378.48,313.006 380.5,310C 381.759,309.018 383.092,308.685 384.5,309C 379.884,311.093 377.551,314.593 377.5,319.5 Z"/></g>
<g><path style="opacity:1" fill="#1a485a" d="M 356.5,345.5 C 352.602,344.536 349.935,342.203 348.5,338.5C 347.713,332.557 346.046,326.89 343.5,321.5C 342.311,320.571 340.978,320.238 339.5,320.5C 340.341,316.802 341.341,313.136 342.5,309.5C 343.274,308.289 344.107,308.289 345,309.5C 349.764,321.231 353.598,333.231 356.5,345.5 Z"/></g>
<g><path style="opacity:1" fill="#234453" d="M 223.5,303.5 C 225.335,304.122 226.502,305.456 227,307.5C 227.333,306.833 227.667,306.167 228,305.5C 233.236,307.947 234.903,311.614 233,316.5C 233.333,316.167 233.667,315.833 234,315.5C 236.853,316.875 239.519,318.542 242,320.5C 242.176,317.118 242.676,313.785 243.5,310.5C 244.417,311.127 245.417,311.461 246.5,311.5C 247.657,320.324 247.824,329.324 247,338.5C 237.769,327.77 229.936,316.103 223.5,303.5 Z"/></g>
<g><path style="opacity:1" fill="#192932" d="M 247.5,347.5 C 243.105,345.437 238.605,345.103 234,346.5C 230.595,345.418 227.095,344.584 223.5,344C 222.309,343.302 221.309,342.469 220.5,341.5C 220.827,331.319 220.494,321.319 219.5,311.5C 219.343,310.127 219.51,308.793 220,307.5C 228.436,321.384 237.602,334.717 247.5,347.5 Z"/></g>
<g><path style="opacity:1" fill="#13647d" d="M 215.5,331.5 C 215.5,332.167 215.5,332.833 215.5,333.5C 214.833,333.5 214.167,333.5 213.5,333.5C 211.857,330.686 210.357,327.686 209,324.5C 207.991,320.487 207.324,316.487 207,312.5C 210.421,318.667 213.254,325 215.5,331.5 Z"/></g>
<g><path style="opacity:1" fill="#e9f0f2" d="M 282.5,296.5 C 282.762,297.978 282.429,299.311 281.5,300.5C 268.866,305.092 264.032,314.092 267,327.5C 267.608,329.154 268.108,330.821 268.5,332.5C 275.137,341.858 283.804,344.025 294.5,339C 305.675,327.972 306.342,316.472 296.5,304.5C 293.24,302.28 289.574,301.114 285.5,301C 284.663,299.989 284.33,298.822 284.5,297.5C 287.026,296.343 289.693,296.343 292.5,297.5C 304.989,303.483 309.822,313.483 307,327.5C 305.512,332.483 303.012,336.816 299.5,340.5C 298.5,340.833 297.833,341.5 297.5,342.5C 286.334,348.965 276.334,347.632 267.5,338.5C 259.003,325.644 259.67,313.31 269.5,301.5C 273.301,297.74 277.635,296.073 282.5,296.5 Z"/></g>
<g><path style="opacity:1" fill="#162b34" d="M 282.5,296.5 C 283.167,296.833 283.833,297.167 284.5,297.5C 284.33,298.822 284.663,299.989 285.5,301C 289.574,301.114 293.24,302.28 296.5,304.5C 300.688,313.38 300.188,322.047 295,330.5C 286.663,338.812 277.83,339.478 268.5,332.5C 268.108,330.821 267.608,329.154 267,327.5C 264.032,314.092 268.866,305.092 281.5,300.5C 282.429,299.311 282.762,297.978 282.5,296.5 Z"/></g>
<g><path style="opacity:1" fill="#185f7f" d="M 124.5,319.5 C 126.167,319.5 127.833,319.5 129.5,319.5C 129.5,328.5 129.5,337.5 129.5,346.5C 128.677,343.023 128.177,339.356 128,335.5C 127.667,337.5 127.333,339.5 127,341.5C 125.989,342.337 124.822,342.67 123.5,342.5C 125.1,334.899 125.433,327.233 124.5,319.5 Z"/></g>
<g><path style="opacity:1" fill="#30596f" d="M 219.5,311.5 C 220.494,321.319 220.827,331.319 220.5,341.5C 220.665,345.182 220.499,348.848 220,352.5C 219.329,353.252 218.496,353.586 217.5,353.5C 217.783,352.711 218.283,352.044 219,351.5C 219.5,338.171 219.667,324.837 219.5,311.5 Z"/></g>
<g><path style="opacity:1" fill="#1a333f" d="M 252.5,297.5 C 257.807,300.318 263.474,301.651 269.5,301.5C 259.67,313.31 259.003,325.644 267.5,338.5C 266.883,338.611 266.383,338.944 266,339.5C 265,338.5 264,337.5 263,336.5C 262.692,337.308 262.192,337.975 261.5,338.5C 259.5,337.167 257.5,337.167 255.5,338.5C 254.451,341.08 253.784,343.746 253.5,346.5C 253.843,348.483 253.176,349.817 251.5,350.5C 251.274,332.851 251.608,315.184 252.5,297.5 Z"/></g>
<g><path style="opacity:1" fill="#112f3a" d="M 309.5,295.5 C 309.703,297.044 310.37,298.378 311.5,299.5C 310.798,301.776 310.965,304.109 312,306.5C 312.92,306.93 313.753,307.264 314.5,307.5C 314.013,308.446 313.68,309.446 313.5,310.5C 315.509,318.534 317.509,326.534 319.5,334.5C 318.566,335.568 318.232,336.901 318.5,338.5C 313.511,337.778 308.511,337.612 303.5,338C 302.529,339.481 301.196,340.315 299.5,340.5C 303.012,336.816 305.512,332.483 307,327.5C 309.822,313.483 304.989,303.483 292.5,297.5C 298.134,296.573 303.801,295.907 309.5,295.5 Z"/></g>
<g><path style="opacity:1" fill="#1a343f" d="M 339.5,320.5 C 340.978,320.238 342.311,320.571 343.5,321.5C 346.046,326.89 347.713,332.557 348.5,338.5C 344.814,339.648 341.147,339.648 337.5,338.5C 336.476,339.853 335.143,340.52 333.5,340.5C 333.843,342.483 333.176,343.817 331.5,344.5C 331.34,342.801 331.506,341.134 332,339.5C 335.382,333.522 337.882,327.189 339.5,320.5 Z"/></g>
<g><path style="opacity:1" fill="#252a30" d="M 161.5,323.5 C 166.313,324.493 170.98,325.993 175.5,328C 178.186,330.546 179.186,333.713 178.5,337.5C 172.962,339.291 167.296,339.791 161.5,339C 157.639,337.774 155.306,335.274 154.5,331.5C 154.351,330.448 154.517,329.448 155,328.5C 156.493,330.56 158.326,330.893 160.5,329.5C 159.566,327.298 159.9,325.298 161.5,323.5 Z"/></g>
<g><path style="opacity:1" fill="#154658" d="M 296.5,304.5 C 306.342,316.472 305.675,327.972 294.5,339C 283.804,344.025 275.137,341.858 268.5,332.5C 277.83,339.478 286.663,338.812 295,330.5C 300.188,322.047 300.688,313.38 296.5,304.5 Z"/></g>
<g><path style="opacity:1" fill="#0f2732" d="M 124.5,319.5 C 125.433,327.233 125.1,334.899 123.5,342.5C 122.71,341.391 122.21,340.058 122,338.5C 121.164,341.941 120.331,342.108 119.5,339C 120.962,332.317 122.628,325.817 124.5,319.5 Z"/></g>
<g><path style="opacity:1" fill="#13262b" d="M 368.5,316.5 C 369.49,322.645 369.823,328.978 369.5,335.5C 366.835,337.64 364.502,340.14 362.5,343C 366.226,344.043 365.893,344.543 361.5,344.5C 364.632,335.423 366.966,326.09 368.5,316.5 Z"/></g>
<g><path style="opacity:1" fill="#223f4e" d="M 154.5,331.5 C 155.306,335.274 157.639,337.774 161.5,339C 167.296,339.791 172.962,339.291 178.5,337.5C 173.686,343.717 167.353,345.884 159.5,344C 153.006,341.696 150.006,337.196 150.5,330.5C 151.496,330.586 152.329,330.252 153,329.5C 153.278,330.416 153.778,331.082 154.5,331.5 Z"/></g>
<g><path style="opacity:1" fill="#0f1c20" d="M 319.5,334.5 C 319.995,336.482 320.495,338.482 321,340.5C 322.016,341.634 322.683,341.301 323,339.5C 323.236,341.119 324.069,342.119 325.5,342.5C 325.33,343.822 325.663,344.989 326.5,346C 328.674,346.877 330.341,346.377 331.5,344.5C 333.176,343.817 333.843,342.483 333.5,340.5C 335.143,340.52 336.476,339.853 337.5,338.5C 341.147,339.648 344.814,339.648 348.5,338.5C 349.935,342.203 352.602,344.536 356.5,345.5C 356.833,346.167 357.167,346.833 357.5,347.5C 353.894,347.789 350.394,347.456 347,346.5C 346.544,347.744 347.044,348.577 348.5,349C 346.671,349.273 345.171,350.107 344,351.5C 340,350.167 336,350.167 332,351.5C 329.5,349.464 326.833,349.13 324,350.5C 323.667,349.833 323.333,349.167 323,348.5C 322.667,350.167 322.333,351.833 322,353.5C 320.842,353.002 320.009,352.169 319.5,351C 320.452,349.7 320.452,348.533 319.5,347.5C 315.788,349.815 311.954,349.815 308,347.5C 303.833,348.633 301.166,346.967 300,342.5C 299.667,343.167 299.333,343.833 299,344.5C 298.722,343.584 298.222,342.918 297.5,342.5C 297.833,341.5 298.5,340.833 299.5,340.5C 301.196,340.315 302.529,339.481 303.5,338C 308.511,337.612 313.511,337.778 318.5,338.5C 318.232,336.901 318.566,335.568 319.5,334.5 Z"/></g>
<g><path style="opacity:1" fill="#111b20" d="M 267.5,338.5 C 276.334,347.632 286.334,348.965 297.5,342.5C 296.297,344.395 295.131,346.395 294,348.5C 293.333,345.833 292.667,345.833 292,348.5C 291,347.833 290,347.167 289,346.5C 287.193,348.694 284.86,350.027 282,350.5C 273.863,349.418 265.863,349.418 258,350.5C 257.167,350.333 256.333,350.167 255.5,350C 256.956,349.577 257.456,348.744 257,347.5C 256.586,347.957 256.086,348.291 255.5,348.5C 254.818,347.757 254.151,347.091 253.5,346.5C 253.784,343.746 254.451,341.08 255.5,338.5C 257.5,337.167 259.5,337.167 261.5,338.5C 262.192,337.975 262.692,337.308 263,336.5C 264,337.5 265,338.5 266,339.5C 266.383,338.944 266.883,338.611 267.5,338.5 Z"/></g>
<g><path style="opacity:1" fill="#080a0c" d="M 205.5,323.5 C 208.134,326.739 209.801,330.406 210.5,334.5C 209.737,335.268 208.737,335.768 207.5,336C 207.957,336.414 208.291,336.914 208.5,337.5C 207.846,339.115 207.346,340.782 207,342.5C 206.667,341.5 206.333,340.5 206,339.5C 205.333,340.833 204.667,342.167 204,343.5C 203.691,342.234 203.191,341.067 202.5,340C 202.833,339.667 203.167,339.333 203.5,339C 202.584,338.626 201.75,338.126 201,337.5C 199.679,340.087 198.179,342.587 196.5,345C 196.611,346.722 197.111,346.888 198,345.5C 198.216,347.384 198.883,349.051 200,350.5C 200.805,348.099 201.638,348.266 202.5,351C 201.747,352.487 200.914,352.654 200,351.5C 198.354,353.055 198.021,354.721 199,356.5C 197.644,355.62 196.144,355.286 194.5,355.5C 194.671,358.797 194.005,359.131 192.5,356.5C 188.969,358.55 185.469,358.883 182,357.5C 180.638,359.436 178.805,360.769 176.5,361.5C 174.101,366.975 173.101,366.641 173.5,360.5C 171.857,360.48 170.524,361.147 169.5,362.5C 168.281,361.737 167.281,360.737 166.5,359.5C 163.029,361.253 159.529,361.92 156,361.5C 153.667,358.5 151,355.833 148,353.5C 147.517,352.552 147.351,351.552 147.5,350.5C 144.167,349.359 141.167,347.526 138.5,345C 140.502,342.14 142.835,339.64 145.5,337.5C 152.162,348.166 161.495,351.499 173.5,347.5C 175.178,347.547 177.011,347.88 179,348.5C 181.181,346.644 183.015,344.477 184.5,342C 185.766,341.691 186.933,341.191 188,340.5C 188.333,340.833 188.667,341.167 189,341.5C 190.193,339.395 191.86,337.728 194,336.5C 194.683,332.761 194.183,329.594 192.5,327C 195.167,326.333 195.167,325.667 192.5,325C 196.585,322.35 200.919,321.85 205.5,323.5 Z"/></g>
<g><path style="opacity:1" fill="#050a0c" d="M 377.5,319.5 C 378.101,326.289 377.434,332.789 375.5,339C 375.461,340.245 375.795,341.578 376.5,343C 374.424,344.244 373.424,346.077 373.5,348.5C 371.549,348.227 370.049,348.893 369,350.5C 367.984,349.366 367.317,349.699 367,351.5C 366.667,351.167 366.333,350.833 366,350.5C 360.374,355.089 353.874,357.256 346.5,357C 346.833,357.333 347.167,357.667 347.5,358C 346.739,362.358 345.572,362.525 344,358.5C 343.707,361.954 342.374,362.288 340,359.5C 338.414,360.376 336.914,361.376 335.5,362.5C 329.919,360.192 324.253,358.525 318.5,357.5C 318.275,361.056 319.108,361.39 321,358.5C 323.518,359.531 324.351,361.198 323.5,363.5C 322.167,360.833 320.833,360.833 319.5,363.5C 318.304,363.154 318.304,362.654 319.5,362C 318.552,361.517 317.552,361.351 316.5,361.5C 316.5,360.5 316.5,359.5 316.5,358.5C 311.787,359.049 307.453,359.382 303.5,359.5C 301.971,359.471 300.804,358.804 300,357.5C 298.283,358.455 296.616,359.455 295,360.5C 294.072,358.665 292.906,358.332 291.5,359.5C 287.631,356.913 283.797,356.913 280,359.5C 278.188,359.507 276.688,358.84 275.5,357.5C 273.866,357.968 272.7,358.968 272,360.5C 267.822,357.507 263.989,357.84 260.5,361.5C 260.167,360.833 259.833,360.167 259.5,359.5C 257.627,358.911 255.96,359.578 254.5,361.5C 249.167,360.167 243.833,360.167 238.5,361.5C 235.624,358.92 232.79,358.92 230,361.5C 225.679,358.932 221.513,356.265 217.5,353.5C 218.496,353.586 219.329,353.252 220,352.5C 220.499,348.848 220.665,345.182 220.5,341.5C 221.309,342.469 222.309,343.302 223.5,344C 227.095,344.584 230.595,345.418 234,346.5C 238.605,345.103 243.105,345.437 247.5,347.5C 247.694,349.912 249.027,350.912 251.5,350.5C 253.176,349.817 253.843,348.483 253.5,346.5C 254.151,347.091 254.818,347.757 255.5,348.5C 256.086,348.291 256.586,347.957 257,347.5C 257.456,348.744 256.956,349.577 255.5,350C 256.333,350.167 257.167,350.333 258,350.5C 265.863,349.418 273.863,349.418 282,350.5C 284.86,350.027 287.193,348.694 289,346.5C 290,347.167 291,347.833 292,348.5C 292.667,345.833 293.333,345.833 294,348.5C 295.131,346.395 296.297,344.395 297.5,342.5C 298.222,342.918 298.722,343.584 299,344.5C 299.333,343.833 299.667,343.167 300,342.5C 301.166,346.967 303.833,348.633 308,347.5C 311.954,349.815 315.788,349.815 319.5,347.5C 320.452,348.533 320.452,349.7 319.5,351C 320.009,352.169 320.842,353.002 322,353.5C 322.333,351.833 322.667,350.167 323,348.5C 323.333,349.167 323.667,349.833 324,350.5C 326.833,349.13 329.5,349.464 332,351.5C 336,350.167 340,350.167 344,351.5C 345.171,350.107 346.671,349.273 348.5,349C 347.044,348.577 346.544,347.744 347,346.5C 350.394,347.456 353.894,347.789 357.5,347.5C 358.833,347.5 360.167,347.5 361.5,347.5C 361.5,346.5 361.5,345.5 361.5,344.5C 365.893,344.543 366.226,344.043 362.5,343C 364.502,340.14 366.835,337.64 369.5,335.5C 369.5,336.167 369.5,336.833 369.5,337.5C 370.884,338.801 372.384,338.801 374,337.5C 374.333,330.5 374.667,323.5 375,316.5C 375.333,323.167 375.667,329.833 376,336.5C 376.173,330.652 376.673,324.985 377.5,319.5 Z"/></g>
<g><path style="opacity:1" fill="#0f100e" d="M 499.5,410.5 C 499.5,413.833 499.5,417.167 499.5,420.5C 483.384,442.473 465.05,462.64 444.5,481C 441.121,482.338 437.788,483.338 434.5,484C 435.167,483.667 435.833,483.333 436.5,483C 435.167,481.667 435.167,480.333 436.5,479C 447.18,470.409 457.346,461.242 467,451.5C 478.816,438.492 489.649,424.825 499.5,410.5 Z"/></g>
</svg>
